<?xml version="1.0" encoding="UTF-8" standalone="no"?>
<!DOCTYPE svg PUBLIC "-//W3C//DTD SVG 1.1//EN" "http://www.w3.org/Graphics/SVG/1.1/DTD/svg11.dtd">
<!-- 由 Microsoft Visio, SVG Export 生成 AttentionBlock.svg Page-1 -->
<svg xmlns="http://www.w3.org/2000/svg" xmlns:xlink="http://www.w3.org/1999/xlink" xmlns:ev="http://www.w3.org/2001/xml-events"
		xmlns:v="http://schemas.microsoft.com/visio/2003/SVGExtensions/" width="11.6929in" height="31.5709in"
		viewBox="0 0 841.89 2273.1" xml:space="preserve" color-interpolation-filters="sRGB" class="st13">
	<v:documentProperties v:langID="2052" v:metric="true" v:viewMarkup="false">
		<v:userDefs>
			<v:ud v:nameU="msvSubprocessMaster" v:prompt="" v:val="VT4(Rectangle)"/>
			<v:ud v:nameU="msvNoAutoConnect" v:val="VT0(1):26"/>
		</v:userDefs>
	</v:documentProperties>

	<style type="text/css">
	<![CDATA[
		.st1 {fill:#ffffff;stroke:#000000;stroke-dasharray:33.75,20.25;stroke-width:2.25}
		.st2 {visibility:visible}
		.st3 {fill:#5b9bd5;fill-opacity:0.22;filter:url(#filter_2);stroke:#5b9bd5;stroke-opacity:0.22}
		.st4 {fill:#305497;stroke:#000000;stroke-width:2.25}
		.st5 {fill:#feffff;font-family:Calibri;font-size:1.66667em}
		.st6 {font-size:1em}
		.st7 {fill:#feffff;font-family:黑体;font-size:1.66667em}
		.st8 {font-family:Calibri;font-size:1em}
		.st9 {marker-end:url(#mrkr4-121);stroke:#000000;stroke-linecap:round;stroke-linejoin:round;stroke-width:2.25}
		.st10 {fill:#000000;fill-opacity:1;stroke:#000000;stroke-opacity:1;stroke-width:0.47169811320755}
		.st11 {fill:#ffffff;stroke:none;stroke-width:0.75}
		.st12 {fill:#000000;font-family:Calibri;font-size:1.66667em}
		.st13 {fill:none;fill-rule:evenodd;font-size:12px;overflow:visible;stroke-linecap:square;stroke-miterlimit:3}
	]]>
	</style>

	<defs id="Markers">
		<g id="lend4">
			<path d="M 2 1 L 0 0 L 2 -1 L 2 1 " style="stroke:none"/>
		</g>
		<marker id="mrkr4-121" class="st10" v:arrowType="4" v:arrowSize="2" v:setback="4.24" refX="-4.24" orient="auto"
				markerUnits="strokeWidth" overflow="visible">
			<use xlink:href="#lend4" transform="scale(-2.12,-2.12) "/>
		</marker>
	</defs>
	<defs id="Filters">
		<filter id="filter_2">
			<feGaussianBlur stdDeviation="2"/>
		</filter>
	</defs>
	<g v:mID="0" v:index="1" v:groupContext="foregroundPage">
		<v:userDefs>
			<v:ud v:nameU="msvThemeOrder" v:val="VT0(0):26"/>
		</v:userDefs>
		<title>页-1</title>
		<v:pageProperties v:drawingScale="0.0393701" v:pageScale="0.0393701" v:drawingUnits="24" v:shadowOffsetX="8.50394"
				v:shadowOffsetY="-8.50394"/>
		<v:layer v:name="连接线" v:index="0"/>
		<v:layer v:name="分组框" v:index="1"/>
		<g id="shape81-1" v:mID="81" v:groupContext="shape" transform="translate(91.4173,-710.929)">
			<title>矩形.81</title>
			<v:userDefs>
				<v:ud v:nameU="visVersion" v:val="VT0(15):26"/>
			</v:userDefs>
			<path d="M0 2273.1 L355.75 2273.1 L355.75 1916.79 L0 1916.79 L0 2273.1 Z" class="st1"/>
		</g>
		<g id="shape38-3" v:mID="38" v:groupContext="shape" transform="translate(163.828,-1085.71)">
			<title>圆角矩形.38</title>
			<desc>[BatchSize, SeqLen, HidSize]</desc>
			<v:userDefs>
				<v:ud v:nameU="CTypeTopLeftSnip" v:prompt="" v:val="VT0(0):5"/>
				<v:ud v:nameU="CTypeTopRightSnip" v:prompt="" v:val="VT0(0):5"/>
				<v:ud v:nameU="CTypeBotLeftSnip" v:prompt="" v:val="VT0(0):5"/>
				<v:ud v:nameU="CTypeBotRightSnip" v:prompt="" v:val="VT0(0):5"/>
				<v:ud v:nameU="CornerLockHoriz" v:prompt="" v:val="VT0(1):5"/>
				<v:ud v:nameU="CornerLockVert" v:prompt="" v:val="VT0(1):5"/>
				<v:ud v:nameU="CornerLockDiag" v:prompt="" v:val="VT0(0):5"/>
				<v:ud v:nameU="TopLeftOffset" v:prompt="" v:val="VT0(0.15748031496063):24"/>
				<v:ud v:nameU="TopRightOffset" v:prompt="" v:val="VT0(0.15748031496063):24"/>
				<v:ud v:nameU="BotLeftOffset" v:prompt="" v:val="VT0(0.15748031496063):24"/>
				<v:ud v:nameU="BotRightOffset" v:prompt="" v:val="VT0(0.15748031496063):24"/>
				<v:ud v:nameU="visVersion" v:prompt="" v:val="VT0(15):26"/>
				<v:ud v:nameU="TopLeftOffset" v:prompt="" v:val="VT0(0.29295342319498):1"/>
				<v:ud v:nameU="TopRightOffset" v:prompt="" v:val="VT0(0.29295342319498):1"/>
				<v:ud v:nameU="BotLeftOffset" v:prompt="" v:val="VT0(0.29295342319498):1"/>
				<v:ud v:nameU="BotRightOffset" v:prompt="" v:val="VT0(0.29295342319498):1"/>
			</v:userDefs>
			<v:textBlock v:margins="rect(4,4,4,4)" v:tabSpace="42.5197"/>
			<v:textRect cx="105.463" cy="2230.58" width="210.93" height="85.0394"/>
			<g id="shadow38-4" v:groupContext="shadow" v:shadowOffsetX="0.345598" v:shadowOffsetY="-1.97279" v:shadowType="1"
					transform="matrix(1,0,0,1,0.345598,1.97279)" class="st2">
				<path d="M21.09 2273.1 L189.83 2273.1 A21.0923 21.0923 -180 0 0 210.93 2252.01 L210.93 2209.16 A21.0923 21.0923 -180
							 0 0 189.83 2188.06 L21.09 2188.06 A21.0923 21.0923 -180 0 0 0 2209.16 L0 2252.01 A21.0923 21.0923 -180
							 0 0 21.09 2273.1 Z" class="st3"/>
			</g>
			<path d="M21.09 2273.1 L189.83 2273.1 A21.0923 21.0923 -180 0 0 210.93 2252.01 L210.93 2209.16 A21.0923 21.0923 -180
						 0 0 189.83 2188.06 L21.09 2188.06 A21.0923 21.0923 -180 0 0 0 2209.16 L0 2252.01 A21.0923 21.0923 -180 0
						 0 21.09 2273.1 Z" class="st4"/>
			<text x="27.01" y="2224.58" class="st5" v:langID="2052"><v:paragraph v:horizAlign="1"/><v:tabList/>[BatchSize, SeqLen,<v:newlineChar/><tspan
						x="72.8" dy="1.2em" class="st6">HidSize</tspan>]</text>		</g>
		<g id="shape76-10" v:mID="76" v:groupContext="shape" transform="translate(87.874,-1184.88)">
			<title>矩形.76</title>
			<v:userDefs>
				<v:ud v:nameU="visVersion" v:val="VT0(15):26"/>
			</v:userDefs>
			<path d="M0 2273.1 L355.75 2273.1 L355.75 1762.3 L0 1762.3 L0 2273.1 Z" class="st1"/>
		</g>
		<g id="shape1-12" v:mID="1" v:groupContext="shape" transform="translate(163.828,-118.814)">
			<title>圆角矩形</title>
			<desc>输入1 [BatchSize, SeqLen, HidSize]</desc>
			<v:userDefs>
				<v:ud v:nameU="CTypeTopLeftSnip" v:prompt="" v:val="VT0(0):5"/>
				<v:ud v:nameU="CTypeTopRightSnip" v:prompt="" v:val="VT0(0):5"/>
				<v:ud v:nameU="CTypeBotLeftSnip" v:prompt="" v:val="VT0(0):5"/>
				<v:ud v:nameU="CTypeBotRightSnip" v:prompt="" v:val="VT0(0):5"/>
				<v:ud v:nameU="CornerLockHoriz" v:prompt="" v:val="VT0(1):5"/>
				<v:ud v:nameU="CornerLockVert" v:prompt="" v:val="VT0(1):5"/>
				<v:ud v:nameU="CornerLockDiag" v:prompt="" v:val="VT0(0):5"/>
				<v:ud v:nameU="TopLeftOffset" v:prompt="" v:val="VT0(0.15748031496063):24"/>
				<v:ud v:nameU="TopRightOffset" v:prompt="" v:val="VT0(0.15748031496063):24"/>
				<v:ud v:nameU="BotLeftOffset" v:prompt="" v:val="VT0(0.15748031496063):24"/>
				<v:ud v:nameU="BotRightOffset" v:prompt="" v:val="VT0(0.15748031496063):24"/>
				<v:ud v:nameU="visVersion" v:prompt="" v:val="VT0(15):26"/>
				<v:ud v:nameU="TopLeftOffset" v:prompt="" v:val="VT0(0.29295342319498):1"/>
				<v:ud v:nameU="TopRightOffset" v:prompt="" v:val="VT0(0.29295342319498):1"/>
				<v:ud v:nameU="BotLeftOffset" v:prompt="" v:val="VT0(0.29295342319498):1"/>
				<v:ud v:nameU="BotRightOffset" v:prompt="" v:val="VT0(0.29295342319498):1"/>
			</v:userDefs>
			<v:textBlock v:margins="rect(4,4,4,4)" v:tabSpace="42.5197"/>
			<v:textRect cx="105.463" cy="2230.58" width="210.93" height="85.0394"/>
			<g id="shadow1-13" v:groupContext="shadow" v:shadowOffsetX="0.345598" v:shadowOffsetY="-1.97279" v:shadowType="1"
					transform="matrix(1,0,0,1,0.345598,1.97279)" class="st2">
				<path d="M21.09 2273.1 L189.83 2273.1 A21.0923 21.0923 -180 0 0 210.93 2252.01 L210.93 2209.16 A21.0923 21.0923 -180
							 0 0 189.83 2188.06 L21.09 2188.06 A21.0923 21.0923 -180 0 0 0 2209.16 L0 2252.01 A21.0923 21.0923 -180
							 0 0 21.09 2273.1 Z" class="st3"/>
			</g>
			<path d="M21.09 2273.1 L189.83 2273.1 A21.0923 21.0923 -180 0 0 210.93 2252.01 L210.93 2209.16 A21.0923 21.0923 -180
						 0 0 189.83 2188.06 L21.09 2188.06 A21.0923 21.0923 -180 0 0 0 2209.16 L0 2252.01 A21.0923 21.0923 -180 0
						 0 21.09 2273.1 Z" class="st4"/>
			<text x="80.39" y="2213.24" class="st7" v:langID="2052"><v:paragraph v:horizAlign="1"/><v:tabList/>输入<tspan class="st8">1<v:newlineChar/></tspan><tspan
						x="27.01" dy="1.233em" class="st8">[</tspan><tspan class="st8">BatchSize</tspan><tspan class="st8">, </tspan><tspan
						class="st8">SeqLen</tspan><tspan class="st8">,<v:newlineChar/></tspan><tspan x="72.8" dy="1.2em"
						class="st8">HidSize</tspan><tspan class="st8">]</tspan></text>		</g>
		<g id="shape2-26" v:mID="2" v:groupContext="shape" transform="translate(489.812,-118.814)">
			<title>圆角矩形.2</title>
			<desc>输入2? [BatchSize, SeqLen, HidSize]</desc>
			<v:userDefs>
				<v:ud v:nameU="CTypeTopLeftSnip" v:prompt="" v:val="VT0(0):5"/>
				<v:ud v:nameU="CTypeTopRightSnip" v:prompt="" v:val="VT0(0):5"/>
				<v:ud v:nameU="CTypeBotLeftSnip" v:prompt="" v:val="VT0(0):5"/>
				<v:ud v:nameU="CTypeBotRightSnip" v:prompt="" v:val="VT0(0):5"/>
				<v:ud v:nameU="CornerLockHoriz" v:prompt="" v:val="VT0(1):5"/>
				<v:ud v:nameU="CornerLockVert" v:prompt="" v:val="VT0(1):5"/>
				<v:ud v:nameU="CornerLockDiag" v:prompt="" v:val="VT0(0):5"/>
				<v:ud v:nameU="TopLeftOffset" v:prompt="" v:val="VT0(0.15748031496063):24"/>
				<v:ud v:nameU="TopRightOffset" v:prompt="" v:val="VT0(0.15748031496063):24"/>
				<v:ud v:nameU="BotLeftOffset" v:prompt="" v:val="VT0(0.15748031496063):24"/>
				<v:ud v:nameU="BotRightOffset" v:prompt="" v:val="VT0(0.15748031496063):24"/>
				<v:ud v:nameU="visVersion" v:prompt="" v:val="VT0(15):26"/>
				<v:ud v:nameU="TopLeftOffset" v:prompt="" v:val="VT0(0.29295342319498):1"/>
				<v:ud v:nameU="TopRightOffset" v:prompt="" v:val="VT0(0.29295342319498):1"/>
				<v:ud v:nameU="BotLeftOffset" v:prompt="" v:val="VT0(0.29295342319498):1"/>
				<v:ud v:nameU="BotRightOffset" v:prompt="" v:val="VT0(0.29295342319498):1"/>
			</v:userDefs>
			<v:textBlock v:margins="rect(4,4,4,4)" v:tabSpace="42.5197"/>
			<v:textRect cx="105.463" cy="2230.58" width="210.93" height="85.0394"/>
			<g id="shadow2-27" v:groupContext="shadow" v:shadowOffsetX="0.345598" v:shadowOffsetY="-1.97279" v:shadowType="1"
					transform="matrix(1,0,0,1,0.345598,1.97279)" class="st2">
				<path d="M21.09 2273.1 L189.83 2273.1 A21.0923 21.0923 -180 0 0 210.93 2252.01 L210.93 2209.16 A21.0923 21.0923 -180
							 0 0 189.83 2188.06 L21.09 2188.06 A21.0923 21.0923 -180 0 0 0 2209.16 L0 2252.01 A21.0923 21.0923 -180
							 0 0 21.09 2273.1 Z" class="st3"/>
			</g>
			<path d="M21.09 2273.1 L189.83 2273.1 A21.0923 21.0923 -180 0 0 210.93 2252.01 L210.93 2209.16 A21.0923 21.0923 -180
						 0 0 189.83 2188.06 L21.09 2188.06 A21.0923 21.0923 -180 0 0 0 2209.16 L0 2252.01 A21.0923 21.0923 -180 0
						 0 21.09 2273.1 Z" class="st4"/>
			<text x="75.76" y="2213.24" class="st7" v:langID="2052"><v:paragraph v:horizAlign="1"/><v:tabList/>输入<tspan class="st8">2</tspan><tspan
						class="st8">?<v:newlineChar/></tspan><tspan x="27.01" dy="1.233em" class="st8">[</tspan><tspan class="st8">BatchSize</tspan><tspan
						class="st8">, </tspan><tspan class="st8">SeqLen</tspan><tspan class="st8">,<v:newlineChar/></tspan><tspan
						x="72.8" dy="1.2em" class="st8">HidSize</tspan><tspan class="st8">]</tspan></text>		</g>
		<g id="shape3-41" v:mID="3" v:groupContext="shape" transform="translate(163.828,-240.945)">
			<title>矩形</title>
			<desc>LayerNorm1</desc>
			<v:userDefs>
				<v:ud v:nameU="visVersion" v:val="VT0(15):26"/>
			</v:userDefs>
			<v:textBlock v:margins="rect(4,4,4,4)" v:tabSpace="42.5197"/>
			<v:textRect cx="105.463" cy="2230.58" width="210.93" height="85.0394"/>
			<g id="shadow3-42" v:groupContext="shadow" v:shadowOffsetX="0.345598" v:shadowOffsetY="-1.97279" v:shadowType="1"
					transform="matrix(1,0,0,1,0.345598,1.97279)" class="st2">
				<rect x="0" y="2188.06" width="210.926" height="85.0394" class="st3"/>
			</g>
			<rect x="0" y="2188.06" width="210.926" height="85.0394" class="st4"/>
			<text x="55.21" y="2236.58" class="st5" v:langID="2052"><v:paragraph v:horizAlign="1"/><v:tabList/>LayerNorm1</text>		</g>
		<g id="shape4-47" v:mID="4" v:groupContext="shape" transform="translate(163.828,-363.076)">
			<title>矩形.4</title>
			<desc>SelfAttn</desc>
			<v:userDefs>
				<v:ud v:nameU="visVersion" v:val="VT0(15):26"/>
			</v:userDefs>
			<v:textBlock v:margins="rect(4,4,4,4)" v:tabSpace="42.5197"/>
			<v:textRect cx="105.463" cy="2230.58" width="210.93" height="85.0394"/>
			<g id="shadow4-48" v:groupContext="shadow" v:shadowOffsetX="0.345598" v:shadowOffsetY="-1.97279" v:shadowType="1"
					transform="matrix(1,0,0,1,0.345598,1.97279)" class="st2">
				<rect x="0" y="2188.06" width="210.926" height="85.0394" class="st3"/>
			</g>
			<rect x="0" y="2188.06" width="210.926" height="85.0394" class="st4"/>
			<text x="72.81" y="2236.58" class="st5" v:langID="2052"><v:paragraph v:horizAlign="1"/><v:tabList/>SelfAttn</text>		</g>
		<g id="shape9-53" v:mID="9" v:groupContext="shape" transform="translate(163.828,-480.08)">
			<title>矩形.9</title>
			<desc>+</desc>
			<v:userDefs>
				<v:ud v:nameU="visVersion" v:val="VT0(15):26"/>
			</v:userDefs>
			<v:textBlock v:margins="rect(4,4,4,4)" v:tabSpace="42.5197"/>
			<v:textRect cx="105.463" cy="2230.58" width="210.93" height="85.0394"/>
			<g id="shadow9-54" v:groupContext="shadow" v:shadowOffsetX="0.345598" v:shadowOffsetY="-1.97279" v:shadowType="1"
					transform="matrix(1,0,0,1,0.345598,1.97279)" class="st2">
				<rect x="0" y="2188.06" width="210.926" height="85.0394" class="st3"/>
			</g>
			<rect x="0" y="2188.06" width="210.926" height="85.0394" class="st4"/>
			<text x="100.48" y="2236.58" class="st5" v:langID="2052"><v:paragraph v:horizAlign="1"/><v:tabList/>+</text>		</g>
		<g id="shape10-59" v:mID="10" v:groupContext="shape" transform="translate(163.828,-733.193)">
			<title>矩形.10</title>
			<desc>LayerNorm2</desc>
			<v:userDefs>
				<v:ud v:nameU="visVersion" v:val="VT0(15):26"/>
			</v:userDefs>
			<v:textBlock v:margins="rect(4,4,4,4)" v:tabSpace="42.5197"/>
			<v:textRect cx="105.463" cy="2230.58" width="210.93" height="85.0394"/>
			<g id="shadow10-60" v:groupContext="shadow" v:shadowOffsetX="0.345598" v:shadowOffsetY="-1.97279" v:shadowType="1"
					transform="matrix(1,0,0,1,0.345598,1.97279)" class="st2">
				<rect x="0" y="2188.06" width="210.926" height="85.0394" class="st3"/>
			</g>
			<rect x="0" y="2188.06" width="210.926" height="85.0394" class="st4"/>
			<text x="55.21" y="2236.58" class="st5" v:langID="2052"><v:paragraph v:horizAlign="1"/><v:tabList/>LayerNorm2</text>		</g>
		<g id="shape11-65" v:mID="11" v:groupContext="shape" transform="translate(163.828,-850.197)">
			<title>矩形.11</title>
			<desc>CrossAttn</desc>
			<v:userDefs>
				<v:ud v:nameU="visVersion" v:val="VT0(15):26"/>
			</v:userDefs>
			<v:textBlock v:margins="rect(4,4,4,4)" v:tabSpace="42.5197"/>
			<v:textRect cx="105.463" cy="2230.58" width="210.93" height="85.0394"/>
			<g id="shadow11-66" v:groupContext="shadow" v:shadowOffsetX="0.345598" v:shadowOffsetY="-1.97279" v:shadowType="1"
					transform="matrix(1,0,0,1,0.345598,1.97279)" class="st2">
				<rect x="0" y="2188.06" width="210.926" height="85.0394" class="st3"/>
			</g>
			<rect x="0" y="2188.06" width="210.926" height="85.0394" class="st4"/>
			<text x="65.81" y="2236.58" class="st5" v:langID="2052"><v:paragraph v:horizAlign="1"/><v:tabList/>CrossAttn</text>		</g>
		<g id="shape12-71" v:mID="12" v:groupContext="shape" transform="translate(163.828,-972.328)">
			<title>矩形.12</title>
			<desc>+</desc>
			<v:userDefs>
				<v:ud v:nameU="visVersion" v:val="VT0(15):26"/>
			</v:userDefs>
			<v:textBlock v:margins="rect(4,4,4,4)" v:tabSpace="42.5197"/>
			<v:textRect cx="105.463" cy="2230.58" width="210.93" height="85.0394"/>
			<g id="shadow12-72" v:groupContext="shadow" v:shadowOffsetX="0.345598" v:shadowOffsetY="-1.97279" v:shadowType="1"
					transform="matrix(1,0,0,1,0.345598,1.97279)" class="st2">
				<rect x="0" y="2188.06" width="210.926" height="85.0394" class="st3"/>
			</g>
			<rect x="0" y="2188.06" width="210.926" height="85.0394" class="st4"/>
			<text x="100.48" y="2236.58" class="st5" v:langID="2052"><v:paragraph v:horizAlign="1"/><v:tabList/>+</text>		</g>
		<g id="shape13-77" v:mID="13" v:groupContext="shape" transform="translate(163.828,-1201.34)">
			<title>矩形.13</title>
			<desc>MLPLinear1 [HidSize, 4HidSize]</desc>
			<v:userDefs>
				<v:ud v:nameU="visVersion" v:val="VT0(15):26"/>
			</v:userDefs>
			<v:textBlock v:margins="rect(4,4,4,4)" v:tabSpace="42.5197"/>
			<v:textRect cx="105.463" cy="2230.58" width="210.93" height="85.0394"/>
			<g id="shadow13-78" v:groupContext="shadow" v:shadowOffsetX="0.345598" v:shadowOffsetY="-1.97279" v:shadowType="1"
					transform="matrix(1,0,0,1,0.345598,1.97279)" class="st2">
				<rect x="0" y="2188.06" width="210.926" height="85.0394" class="st3"/>
			</g>
			<rect x="0" y="2188.06" width="210.926" height="85.0394" class="st4"/>
			<text x="57.47" y="2224.58" class="st5" v:langID="2052"><v:paragraph v:horizAlign="1"/><v:tabList/>MLPLinear1<v:newlineChar/><tspan
						x="30.32" dy="1.2em" class="st6">[</tspan>HidSize, 4HidSize]</text>		</g>
		<g id="shape23-84" v:mID="23" v:groupContext="shape" transform="translate(163.828,-1323.47)">
			<title>矩形.23</title>
			<desc>GELU</desc>
			<v:userDefs>
				<v:ud v:nameU="visVersion" v:val="VT0(15):26"/>
			</v:userDefs>
			<v:textBlock v:margins="rect(4,4,4,4)" v:tabSpace="42.5197"/>
			<v:textRect cx="105.463" cy="2230.58" width="210.93" height="85.0394"/>
			<g id="shadow23-85" v:groupContext="shadow" v:shadowOffsetX="0.345598" v:shadowOffsetY="-1.97279" v:shadowType="1"
					transform="matrix(1,0,0,1,0.345598,1.97279)" class="st2">
				<rect x="0" y="2188.06" width="210.926" height="85.0394" class="st3"/>
			</g>
			<rect x="0" y="2188.06" width="210.926" height="85.0394" class="st4"/>
			<text x="83.65" y="2236.58" class="st5" v:langID="2052"><v:paragraph v:horizAlign="1"/><v:tabList/>GELU</text>		</g>
		<g id="shape24-90" v:mID="24" v:groupContext="shape" transform="translate(163.828,-1451.98)">
			<title>矩形.24</title>
			<desc>MLPLinear2 [4HidSize, HidSize]</desc>
			<v:userDefs>
				<v:ud v:nameU="visVersion" v:val="VT0(15):26"/>
			</v:userDefs>
			<v:textBlock v:margins="rect(4,4,4,4)" v:tabSpace="42.5197"/>
			<v:textRect cx="105.463" cy="2230.58" width="210.93" height="85.0394"/>
			<g id="shadow24-91" v:groupContext="shadow" v:shadowOffsetX="0.345598" v:shadowOffsetY="-1.97279" v:shadowType="1"
					transform="matrix(1,0,0,1,0.345598,1.97279)" class="st2">
				<rect x="0" y="2188.06" width="210.926" height="85.0394" class="st3"/>
			</g>
			<rect x="0" y="2188.06" width="210.926" height="85.0394" class="st4"/>
			<text x="57.47" y="2224.58" class="st5" v:langID="2052"><v:paragraph v:horizAlign="1"/><v:tabList/>MLPLinear2<v:newlineChar/><tspan
						x="30.32" dy="1.2em" class="st6">[</tspan>4HidSize, HidSize]</text>		</g>
		<g id="shape25-97" v:mID="25" v:groupContext="shape" transform="translate(163.828,-1592.58)">
			<title>矩形.25</title>
			<desc>LayerNorm3</desc>
			<v:userDefs>
				<v:ud v:nameU="visVersion" v:val="VT0(15):26"/>
			</v:userDefs>
			<v:textBlock v:margins="rect(4,4,4,4)" v:tabSpace="42.5197"/>
			<v:textRect cx="105.463" cy="2230.58" width="210.93" height="85.0394"/>
			<g id="shadow25-98" v:groupContext="shadow" v:shadowOffsetX="0.345598" v:shadowOffsetY="-1.97279" v:shadowType="1"
					transform="matrix(1,0,0,1,0.345598,1.97279)" class="st2">
				<rect x="0" y="2188.06" width="210.926" height="85.0394" class="st3"/>
			</g>
			<rect x="0" y="2188.06" width="210.926" height="85.0394" class="st4"/>
			<text x="55.21" y="2236.58" class="st5" v:langID="2052"><v:paragraph v:horizAlign="1"/><v:tabList/>LayerNorm3</text>		</g>
		<g id="shape41-103" v:mID="41" v:groupContext="shape" transform="translate(163.828,-1714.96)">
			<title>圆角矩形.41</title>
			<desc>输出 [BatchSize, SeqLen, HidSize]</desc>
			<v:userDefs>
				<v:ud v:nameU="CTypeTopLeftSnip" v:prompt="" v:val="VT0(0):5"/>
				<v:ud v:nameU="CTypeTopRightSnip" v:prompt="" v:val="VT0(0):5"/>
				<v:ud v:nameU="CTypeBotLeftSnip" v:prompt="" v:val="VT0(0):5"/>
				<v:ud v:nameU="CTypeBotRightSnip" v:prompt="" v:val="VT0(0):5"/>
				<v:ud v:nameU="CornerLockHoriz" v:prompt="" v:val="VT0(1):5"/>
				<v:ud v:nameU="CornerLockVert" v:prompt="" v:val="VT0(1):5"/>
				<v:ud v:nameU="CornerLockDiag" v:prompt="" v:val="VT0(0):5"/>
				<v:ud v:nameU="TopLeftOffset" v:prompt="" v:val="VT0(0.15748031496063):24"/>
				<v:ud v:nameU="TopRightOffset" v:prompt="" v:val="VT0(0.15748031496063):24"/>
				<v:ud v:nameU="BotLeftOffset" v:prompt="" v:val="VT0(0.15748031496063):24"/>
				<v:ud v:nameU="BotRightOffset" v:prompt="" v:val="VT0(0.15748031496063):24"/>
				<v:ud v:nameU="visVersion" v:prompt="" v:val="VT0(15):26"/>
				<v:ud v:nameU="TopLeftOffset" v:prompt="" v:val="VT0(0.29295342319498):1"/>
				<v:ud v:nameU="TopRightOffset" v:prompt="" v:val="VT0(0.29295342319498):1"/>
				<v:ud v:nameU="BotLeftOffset" v:prompt="" v:val="VT0(0.29295342319498):1"/>
				<v:ud v:nameU="BotRightOffset" v:prompt="" v:val="VT0(0.29295342319498):1"/>
			</v:userDefs>
			<v:textBlock v:margins="rect(4,4,4,4)" v:tabSpace="42.5197"/>
			<v:textRect cx="105.463" cy="2230.58" width="210.93" height="85.0394"/>
			<g id="shadow41-104" v:groupContext="shadow" v:shadowOffsetX="0.345598" v:shadowOffsetY="-1.97279" v:shadowType="1"
					transform="matrix(1,0,0,1,0.345598,1.97279)" class="st2">
				<path d="M21.09 2273.1 L189.83 2273.1 A21.0923 21.0923 -180 0 0 210.93 2252.01 L210.93 2209.16 A21.0923 21.0923 -180
							 0 0 189.83 2188.06 L21.09 2188.06 A21.0923 21.0923 -180 0 0 0 2209.16 L0 2252.01 A21.0923 21.0923 -180
							 0 0 21.09 2273.1 Z" class="st3"/>
			</g>
			<path d="M21.09 2273.1 L189.83 2273.1 A21.0923 21.0923 -180 0 0 210.93 2252.01 L210.93 2209.16 A21.0923 21.0923 -180
						 0 0 189.83 2188.06 L21.09 2188.06 A21.0923 21.0923 -180 0 0 0 2209.16 L0 2252.01 A21.0923 21.0923 -180 0
						 0 21.09 2273.1 Z" class="st4"/>
			<text x="85.46" y="2213.24" class="st7" v:langID="2052"><v:paragraph v:horizAlign="1"/><v:tabList/>输出<v:newlineChar/><tspan
						x="27.01" dy="1.233em" class="st8">[</tspan><tspan class="st8">BatchSize</tspan><tspan class="st8">, </tspan><tspan
						class="st8">SeqLen</tspan><tspan class="st8">,<v:newlineChar/></tspan><tspan x="72.8" dy="1.2em"
						class="st8">HidSize</tspan><tspan class="st8">]</tspan></text>		</g>
		<g id="shape43-116" v:mID="43" v:groupContext="shape" v:layerMember="0" transform="translate(262.205,-203.853)">
			<title>动态连接线</title>
			<path d="M7.09 2273.1 L7.09 2245.55" class="st9"/>
		</g>
		<g id="shape44-122" v:mID="44" v:groupContext="shape" v:layerMember="0" transform="translate(262.205,-325.984)">
			<title>动态连接线.44</title>
			<path d="M7.09 2273.1 L7.09 2245.55" class="st9"/>
		</g>
		<g id="shape45-127" v:mID="45" v:groupContext="shape" v:layerMember="0" transform="translate(262.205,-448.115)">
			<title>动态连接线.45</title>
			<path d="M7.09 2273.1 L7.09 2250.68" class="st9"/>
		</g>
		<g id="shape46-132" v:mID="46" v:groupContext="shape" v:layerMember="0" transform="translate(367.668,-161.334)">
			<title>动态连接线.46</title>
			<path d="M7.09 2273.1 L43.36 2273.1 L43.36 1911.84 L16.63 1911.84" class="st9"/>
		</g>
		<g id="shape48-137" v:mID="48" v:groupContext="shape" transform="translate(163.828,-605.174)">
			<title>圆角矩形.48</title>
			<desc>[BatchSize, SeqLen, HidSize]</desc>
			<v:userDefs>
				<v:ud v:nameU="CTypeTopLeftSnip" v:prompt="" v:val="VT0(0):5"/>
				<v:ud v:nameU="CTypeTopRightSnip" v:prompt="" v:val="VT0(0):5"/>
				<v:ud v:nameU="CTypeBotLeftSnip" v:prompt="" v:val="VT0(0):5"/>
				<v:ud v:nameU="CTypeBotRightSnip" v:prompt="" v:val="VT0(0):5"/>
				<v:ud v:nameU="CornerLockHoriz" v:prompt="" v:val="VT0(1):5"/>
				<v:ud v:nameU="CornerLockVert" v:prompt="" v:val="VT0(1):5"/>
				<v:ud v:nameU="CornerLockDiag" v:prompt="" v:val="VT0(0):5"/>
				<v:ud v:nameU="TopLeftOffset" v:prompt="" v:val="VT0(0.15748031496063):24"/>
				<v:ud v:nameU="TopRightOffset" v:prompt="" v:val="VT0(0.15748031496063):24"/>
				<v:ud v:nameU="BotLeftOffset" v:prompt="" v:val="VT0(0.15748031496063):24"/>
				<v:ud v:nameU="BotRightOffset" v:prompt="" v:val="VT0(0.15748031496063):24"/>
				<v:ud v:nameU="visVersion" v:prompt="" v:val="VT0(15):26"/>
				<v:ud v:nameU="TopLeftOffset" v:prompt="" v:val="VT0(0.29295342319498):1"/>
				<v:ud v:nameU="TopRightOffset" v:prompt="" v:val="VT0(0.29295342319498):1"/>
				<v:ud v:nameU="BotLeftOffset" v:prompt="" v:val="VT0(0.29295342319498):1"/>
				<v:ud v:nameU="BotRightOffset" v:prompt="" v:val="VT0(0.29295342319498):1"/>
			</v:userDefs>
			<v:textBlock v:margins="rect(4,4,4,4)" v:tabSpace="42.5197"/>
			<v:textRect cx="105.463" cy="2230.58" width="210.93" height="85.0394"/>
			<g id="shadow48-138" v:groupContext="shadow" v:shadowOffsetX="0.345598" v:shadowOffsetY="-1.97279" v:shadowType="1"
					transform="matrix(1,0,0,1,0.345598,1.97279)" class="st2">
				<path d="M21.09 2273.1 L189.83 2273.1 A21.0923 21.0923 -180 0 0 210.93 2252.01 L210.93 2209.16 A21.0923 21.0923 -180
							 0 0 189.83 2188.06 L21.09 2188.06 A21.0923 21.0923 -180 0 0 0 2209.16 L0 2252.01 A21.0923 21.0923 -180
							 0 0 21.09 2273.1 Z" class="st3"/>
			</g>
			<path d="M21.09 2273.1 L189.83 2273.1 A21.0923 21.0923 -180 0 0 210.93 2252.01 L210.93 2209.16 A21.0923 21.0923 -180
						 0 0 189.83 2188.06 L21.09 2188.06 A21.0923 21.0923 -180 0 0 0 2209.16 L0 2252.01 A21.0923 21.0923 -180 0
						 0 21.09 2273.1 Z" class="st4"/>
			<text x="27.01" y="2224.58" class="st5" v:langID="2052"><v:paragraph v:horizAlign="1"/><v:tabList/>[BatchSize, SeqLen,<v:newlineChar/><tspan
						x="72.8" dy="1.2em" class="st6">HidSize</tspan>]</text>		</g>
		<g id="shape49-144" v:mID="49" v:groupContext="shape" v:layerMember="0" transform="translate(262.205,-565.12)">
			<title>动态连接线.49</title>
			<path d="M7.09 2273.1 L7.09 2242.59" class="st9"/>
		</g>
		<g id="shape50-149" v:mID="50" v:groupContext="shape" v:layerMember="0" transform="translate(262.205,-690.214)">
			<title>动态连接线.50</title>
			<path d="M7.09 2273.1 L7.09 2239.66" class="st9"/>
		</g>
		<g id="shape51-154" v:mID="51" v:groupContext="shape" v:layerMember="0" transform="translate(262.205,-818.232)">
			<title>动态连接线.51</title>
			<path d="M7.09 2273.1 L7.09 2250.68" class="st9"/>
		</g>
		<g id="shape52-159" v:mID="52" v:groupContext="shape" v:layerMember="0" transform="translate(262.205,-935.237)">
			<title>动态连接线.52</title>
			<path d="M7.09 2273.1 L7.09 2245.55" class="st9"/>
		</g>
		<g id="shape53-164" v:mID="53" v:groupContext="shape" v:layerMember="0" transform="translate(367.668,-647.694)">
			<title>动态连接线.53</title>
			<path d="M7.09 2273.1 L40.88 2273.1 L40.88 1905.95 L16.63 1905.95" class="st9"/>
		</g>
		<g id="shape54-169" v:mID="54" v:groupContext="shape" v:layerMember="0" transform="translate(262.205,-1057.37)">
			<title>动态连接线.54</title>
			<path d="M7.09 2273.1 L7.09 2254.3" class="st9"/>
		</g>
		<g id="shape55-174" v:mID="55" v:groupContext="shape" v:layerMember="0" transform="translate(262.205,-1170.75)">
			<title>动态连接线.55</title>
			<path d="M7.09 2273.1 L7.09 2252.06" class="st9"/>
		</g>
		<g id="shape56-179" v:mID="56" v:groupContext="shape" v:layerMember="0" transform="translate(262.205,-1286.37)">
			<title>动态连接线.56</title>
			<path d="M7.09 2273.1 L7.09 2245.55" class="st9"/>
		</g>
		<g id="shape57-184" v:mID="57" v:groupContext="shape" v:layerMember="0" transform="translate(262.205,-1408.51)">
			<title>动态连接线.57</title>
			<path d="M7.09 2273.1 L7.09 2239.17" class="st9"/>
		</g>
		<g id="shape60-189" v:mID="60" v:groupContext="shape" v:layerMember="0" transform="translate(262.205,-1537.02)">
			<title>动态连接线.60</title>
			<path d="M7.09 2273.1 L7.09 2227.09" class="st9"/>
		</g>
		<g id="shape61-194" v:mID="61" v:groupContext="shape" v:layerMember="0" transform="translate(262.205,-1677.62)">
			<title>动态连接线.61</title>
			<path d="M7.09 2273.1 L7.09 2245.3" class="st9"/>
		</g>
		<g id="shape62-199" v:mID="62" v:groupContext="shape" v:layerMember="0" transform="translate(595.276,-203.853)">
			<title>动态连接线.62</title>
			<path d="M0 2273.1 L0 1584.24 L-184.36 1584.24 A2.3622 2.3622 -180 0 0 -189.09 1584.24 L-210.98 1584.24" class="st9"/>
		</g>
		<g id="shape80-204" v:mID="80" v:groupContext="shape" transform="translate(88.6326,-1662.86)">
			<title>矩形.80</title>
			<desc>MLP</desc>
			<v:userDefs>
				<v:ud v:nameU="visVersion" v:val="VT0(15):26"/>
			</v:userDefs>
			<v:textBlock v:margins="rect(4,4,4,4)" v:tabSpace="42.5197"/>
			<v:textRect cx="26.5499" cy="2261.22" width="53.1" height="23.7551"/>
			<rect x="0" y="2249.35" width="53.0997" height="23.7551" class="st11"/>
			<text x="8.63" y="2267.23" class="st12" v:langID="2052"><v:paragraph v:horizAlign="1"/><v:tabList/>MLP</text>		</g>
		<g id="shape86-207" v:mID="86" v:groupContext="shape" transform="translate(519.02,-1271.6)">
			<title>矩形.86</title>
			<v:userDefs>
				<v:ud v:nameU="visVersion" v:val="VT0(15):26"/>
			</v:userDefs>
			<rect x="0" y="2249.35" width="53.0997" height="23.7551" class="st11"/>
		</g>
		<g id="shape87-209" v:mID="87" v:groupContext="shape" transform="translate(48.3387,-1071.18)">
			<title>矩形.87</title>
			<desc>CrossAttn?</desc>
			<v:userDefs>
				<v:ud v:nameU="visVersion" v:val="VT0(15):26"/>
			</v:userDefs>
			<v:textBlock v:margins="rect(4,4,4,4)" v:tabSpace="42.5197"/>
			<v:textRect cx="50.8739" cy="2261.22" width="101.75" height="23.7551"/>
			<rect x="0" y="2249.35" width="101.748" height="23.7551" class="st11"/>
			<text x="6.59" y="2267.23" class="st12" v:langID="2052"><v:paragraph v:horizAlign="1"/><v:tabList/>CrossAttn?</text>		</g>
		<g id="shape88-212" v:mID="88" v:groupContext="shape" transform="translate(163.828,-1870.87)">
			<title>剪去单角的矩形</title>
			<desc>AttentionBlock</desc>
			<v:userDefs>
				<v:ud v:nameU="CTypeTopLeftSnip" v:prompt="" v:val="VT0(0):5"/>
				<v:ud v:nameU="CTypeTopRightSnip" v:prompt="" v:val="VT0(1):5"/>
				<v:ud v:nameU="CTypeBotLeftSnip" v:prompt="" v:val="VT0(1):5"/>
				<v:ud v:nameU="CTypeBotRightSnip" v:prompt="" v:val="VT0(0):5"/>
				<v:ud v:nameU="CornerLockHoriz" v:prompt="" v:val="VT0(0):5"/>
				<v:ud v:nameU="CornerLockVert" v:prompt="" v:val="VT0(0):5"/>
				<v:ud v:nameU="CornerLockDiag" v:prompt="" v:val="VT0(0):5"/>
				<v:ud v:nameU="TopLeftOffset" v:prompt="" v:val="VT0(0):24"/>
				<v:ud v:nameU="TopRightOffset" v:prompt="" v:val="VT0(0.15748031496063):24"/>
				<v:ud v:nameU="BotLeftOffset" v:prompt="" v:val="VT0(0):24"/>
				<v:ud v:nameU="BotRightOffset" v:prompt="" v:val="VT0(0):24"/>
				<v:ud v:nameU="visVersion" v:prompt="" v:val="VT0(15):26"/>
				<v:ud v:nameU="TopRightOffset" v:prompt="" v:val="VT0(0.29295342319498):1"/>
			</v:userDefs>
			<v:textBlock v:margins="rect(4,4,4,4)" v:tabSpace="42.5197"/>
			<v:textRect cx="105.463" cy="2230.58" width="210.93" height="85.0394"/>
			<g id="shadow88-213" v:groupContext="shadow" v:shadowOffsetX="0.345598" v:shadowOffsetY="-1.97279" v:shadowType="1"
					transform="matrix(1,0,0,1,0.345598,1.97279)" class="st2">
				<path d="M0 2273.1 L210.93 2273.1 L210.93 2209.16 L189.83 2188.06 L0 2188.06 L0 2273.1 Z" class="st3"/>
			</g>
			<path d="M0 2273.1 L210.93 2273.1 L210.93 2209.16 L189.83 2188.06 L0 2188.06 L0 2273.1 Z" class="st4"/>
			<text x="44.79" y="2236.58" class="st5" v:langID="2052"><v:paragraph v:horizAlign="1"/><v:tabList/>AttentionBlock</text>		</g>
	</g>
</svg>
