<?xml version="1.0" encoding="UTF-8" standalone="no"?>
<!DOCTYPE svg PUBLIC "-//W3C//DTD SVG 1.1//EN" "http://www.w3.org/Graphics/SVG/1.1/DTD/svg11.dtd">
<!-- 由 Microsoft Visio, SVG Export 生成 Whisper.svg Page-1 -->
<svg xmlns="http://www.w3.org/2000/svg" xmlns:xlink="http://www.w3.org/1999/xlink" xmlns:ev="http://www.w3.org/2001/xml-events"
		xmlns:v="http://schemas.microsoft.com/visio/2003/SVGExtensions/" width="11.6929in" height="16.0354in"
		viewBox="0 0 841.89 1154.55" xml:space="preserve" color-interpolation-filters="sRGB" class="st11">
	<v:documentProperties v:langID="2052" v:metric="true" v:viewMarkup="false">
		<v:userDefs>
			<v:ud v:nameU="msvSubprocessMaster" v:prompt="" v:val="VT4(Rectangle)"/>
			<v:ud v:nameU="msvNoAutoConnect" v:val="VT0(1):26"/>
		</v:userDefs>
	</v:documentProperties>

	<style type="text/css">
	<![CDATA[
		.st1 {visibility:visible}
		.st2 {fill:#5b9bd5;fill-opacity:0.22;filter:url(#filter_2);stroke:#5b9bd5;stroke-opacity:0.22}
		.st3 {fill:#305497;stroke:#000000;stroke-width:2.25}
		.st4 {fill:#feffff;font-family:黑体;font-size:1.66667em}
		.st5 {fill:#feffff;font-family:Calibri;font-size:1.66667em}
		.st6 {font-family:黑体;font-size:1em}
		.st7 {font-size:1em}
		.st8 {font-family:Calibri;font-size:1em}
		.st9 {marker-end:url(#mrkr4-66);stroke:#000000;stroke-linecap:round;stroke-linejoin:round;stroke-width:2.25}
		.st10 {fill:#000000;fill-opacity:1;stroke:#000000;stroke-opacity:1;stroke-width:0.47169811320755}
		.st11 {fill:none;fill-rule:evenodd;font-size:12px;overflow:visible;stroke-linecap:square;stroke-miterlimit:3}
	]]>
	</style>

	<defs id="Markers">
		<g id="lend4">
			<path d="M 2 1 L 0 0 L 2 -1 L 2 1 " style="stroke:none"/>
		</g>
		<marker id="mrkr4-66" class="st10" v:arrowType="4" v:arrowSize="2" v:setback="4.24" refX="-4.24" orient="auto"
				markerUnits="strokeWidth" overflow="visible">
			<use xlink:href="#lend4" transform="scale(-2.12,-2.12) "/>
		</marker>
	</defs>
	<defs id="Filters">
		<filter id="filter_2">
			<feGaussianBlur stdDeviation="2"/>
		</filter>
	</defs>
	<g v:mID="0" v:index="1" v:groupContext="foregroundPage">
		<v:userDefs>
			<v:ud v:nameU="msvThemeOrder" v:val="VT0(0):26"/>
		</v:userDefs>
		<title>页-1</title>
		<v:pageProperties v:drawingScale="0.0393701" v:pageScale="0.0393701" v:drawingUnits="24" v:shadowOffsetX="8.50394"
				v:shadowOffsetY="-8.50394"/>
		<v:layer v:name="连接线" v:index="0"/>
		<g id="shape1-1" v:mID="1" v:groupContext="shape" transform="translate(149.419,-269.291)">
			<title>矩形</title>
			<desc>编码器</desc>
			<v:userDefs>
				<v:ud v:nameU="visVersion" v:val="VT0(15):26"/>
			</v:userDefs>
			<v:textBlock v:margins="rect(4,4,4,4)" v:tabSpace="42.5197"/>
			<v:textRect cx="100.33" cy="1112.03" width="200.66" height="85.0394"/>
			<g id="shadow1-2" v:groupContext="shadow" v:shadowOffsetX="0.345598" v:shadowOffsetY="-1.97279" v:shadowType="1"
					transform="matrix(1,0,0,1,0.345598,1.97279)" class="st1">
				<rect x="0" y="1069.51" width="200.659" height="85.0394" class="st2"/>
			</g>
			<rect x="0" y="1069.51" width="200.659" height="85.0394" class="st3"/>
			<text x="70.33" y="1118.69" class="st4" v:langID="2052"><v:paragraph v:horizAlign="1"/><v:tabList/>编码器</text>		</g>
		<g id="shape2-7" v:mID="2" v:groupContext="shape" transform="translate(149.419,-127.559)">
			<title>圆角矩形</title>
			<desc>MEL频谱 [BatchSize, MelSize, SeqLen]</desc>
			<v:userDefs>
				<v:ud v:nameU="CTypeTopLeftSnip" v:prompt="" v:val="VT0(0):5"/>
				<v:ud v:nameU="CTypeTopRightSnip" v:prompt="" v:val="VT0(0):5"/>
				<v:ud v:nameU="CTypeBotLeftSnip" v:prompt="" v:val="VT0(0):5"/>
				<v:ud v:nameU="CTypeBotRightSnip" v:prompt="" v:val="VT0(0):5"/>
				<v:ud v:nameU="CornerLockHoriz" v:prompt="" v:val="VT0(1):5"/>
				<v:ud v:nameU="CornerLockVert" v:prompt="" v:val="VT0(1):5"/>
				<v:ud v:nameU="CornerLockDiag" v:prompt="" v:val="VT0(0):5"/>
				<v:ud v:nameU="TopLeftOffset" v:prompt="" v:val="VT0(0.15748031496063):24"/>
				<v:ud v:nameU="TopRightOffset" v:prompt="" v:val="VT0(0.15748031496063):24"/>
				<v:ud v:nameU="BotLeftOffset" v:prompt="" v:val="VT0(0.15748031496063):24"/>
				<v:ud v:nameU="BotRightOffset" v:prompt="" v:val="VT0(0.15748031496063):24"/>
				<v:ud v:nameU="visVersion" v:prompt="" v:val="VT0(15):26"/>
				<v:ud v:nameU="TopLeftOffset" v:prompt="" v:val="VT0(0.2786934472174):1"/>
				<v:ud v:nameU="TopRightOffset" v:prompt="" v:val="VT0(0.2786934472174):1"/>
				<v:ud v:nameU="BotLeftOffset" v:prompt="" v:val="VT0(0.2786934472174):1"/>
				<v:ud v:nameU="BotRightOffset" v:prompt="" v:val="VT0(0.2786934472174):1"/>
			</v:userDefs>
			<v:textBlock v:margins="rect(4,4,4,4)" v:tabSpace="42.5197"/>
			<v:textRect cx="100.33" cy="1112.03" width="200.66" height="85.0394"/>
			<g id="shadow2-8" v:groupContext="shadow" v:shadowOffsetX="0.345598" v:shadowOffsetY="-1.97279" v:shadowType="1"
					transform="matrix(1,0,0,1,0.345598,1.97279)" class="st1">
				<path d="M20.07 1154.55 L180.59 1154.55 A20.0656 20.0656 -180 0 0 200.66 1134.49 L200.66 1089.58 A20.0656 20.0656
							 -180 0 0 180.59 1069.51 L20.07 1069.51 A20.0656 20.0656 -180 0 0 0 1089.58 L0 1134.49 A20.0656 20.0656
							 -180 0 0 20.07 1154.55 Z" class="st2"/>
			</g>
			<path d="M20.07 1154.55 L180.59 1154.55 A20.0656 20.0656 -180 0 0 200.66 1134.49 L200.66 1089.58 A20.0656 20.0656 -180
						 0 0 180.59 1069.51 L20.07 1069.51 A20.0656 20.0656 -180 0 0 0 1089.58 L0 1134.49 A20.0656 20.0656 -180 0
						 0 20.07 1154.55 Z" class="st3"/>
			<text x="62.69" y="1094.69" class="st5" v:langID="2052"><v:paragraph v:horizAlign="1"/><v:tabList/>MEL<tspan
						class="st6">频谱<v:newlineChar/></tspan><tspan x="19.5" dy="1.233em" class="st7">[</tspan>BatchSize, MelSize,<v:newlineChar/><tspan
						x="68.01" dy="1.2em" class="st7">SeqLen</tspan>]</text>		</g>
		<g id="shape3-16" v:mID="3" v:groupContext="shape" transform="translate(430.926,-127.559)">
			<title>圆角矩形.3</title>
			<desc>单词ID [BatchSIze, SeqLen]</desc>
			<v:userDefs>
				<v:ud v:nameU="CTypeTopLeftSnip" v:prompt="" v:val="VT0(0):5"/>
				<v:ud v:nameU="CTypeTopRightSnip" v:prompt="" v:val="VT0(0):5"/>
				<v:ud v:nameU="CTypeBotLeftSnip" v:prompt="" v:val="VT0(0):5"/>
				<v:ud v:nameU="CTypeBotRightSnip" v:prompt="" v:val="VT0(0):5"/>
				<v:ud v:nameU="CornerLockHoriz" v:prompt="" v:val="VT0(1):5"/>
				<v:ud v:nameU="CornerLockVert" v:prompt="" v:val="VT0(1):5"/>
				<v:ud v:nameU="CornerLockDiag" v:prompt="" v:val="VT0(0):5"/>
				<v:ud v:nameU="TopLeftOffset" v:prompt="" v:val="VT0(0.15748031496063):24"/>
				<v:ud v:nameU="TopRightOffset" v:prompt="" v:val="VT0(0.15748031496063):24"/>
				<v:ud v:nameU="BotLeftOffset" v:prompt="" v:val="VT0(0.15748031496063):24"/>
				<v:ud v:nameU="BotRightOffset" v:prompt="" v:val="VT0(0.15748031496063):24"/>
				<v:ud v:nameU="visVersion" v:prompt="" v:val="VT0(15):26"/>
				<v:ud v:nameU="TopLeftOffset" v:prompt="" v:val="VT0(0.2786934472174):1"/>
				<v:ud v:nameU="TopRightOffset" v:prompt="" v:val="VT0(0.2786934472174):1"/>
				<v:ud v:nameU="BotLeftOffset" v:prompt="" v:val="VT0(0.2786934472174):1"/>
				<v:ud v:nameU="BotRightOffset" v:prompt="" v:val="VT0(0.2786934472174):1"/>
			</v:userDefs>
			<v:textBlock v:margins="rect(4,4,4,4)" v:tabSpace="42.5197"/>
			<v:textRect cx="100.33" cy="1112.03" width="200.66" height="85.0394"/>
			<g id="shadow3-17" v:groupContext="shadow" v:shadowOffsetX="0.345598" v:shadowOffsetY="-1.97279" v:shadowType="1"
					transform="matrix(1,0,0,1,0.345598,1.97279)" class="st1">
				<path d="M20.07 1154.55 L180.59 1154.55 A20.0656 20.0656 -180 0 0 200.66 1134.49 L200.66 1089.58 A20.0656 20.0656
							 -180 0 0 180.59 1069.51 L20.07 1069.51 A20.0656 20.0656 -180 0 0 0 1089.58 L0 1134.49 A20.0656 20.0656
							 -180 0 0 20.07 1154.55 Z" class="st2"/>
			</g>
			<path d="M20.07 1154.55 L180.59 1154.55 A20.0656 20.0656 -180 0 0 200.66 1134.49 L200.66 1089.58 A20.0656 20.0656 -180
						 0 0 180.59 1069.51 L20.07 1069.51 A20.0656 20.0656 -180 0 0 0 1089.58 L0 1134.49 A20.0656 20.0656 -180 0
						 0 20.07 1154.55 Z" class="st3"/>
			<text x="71.66" y="1106.69" class="st4" v:langID="2052"><v:paragraph v:horizAlign="1"/><v:tabList/>单词<tspan class="st8">ID<v:newlineChar/></tspan><tspan
						x="21.08" dy="1.233em" class="st8">[</tspan><tspan class="st8">BatchSIze</tspan><tspan class="st8">, </tspan><tspan
						class="st8">SeqLen</tspan><tspan class="st8">]</tspan></text>		</g>
		<g id="shape10-28" v:mID="10" v:groupContext="shape" transform="translate(429.419,-492.236)">
			<title>矩形.10</title>
			<desc>解码器</desc>
			<v:userDefs>
				<v:ud v:nameU="visVersion" v:val="VT0(15):26"/>
			</v:userDefs>
			<v:textBlock v:margins="rect(4,4,4,4)" v:tabSpace="42.5197"/>
			<v:textRect cx="100.33" cy="1112.03" width="200.66" height="85.0394"/>
			<g id="shadow10-29" v:groupContext="shadow" v:shadowOffsetX="0.345598" v:shadowOffsetY="-1.97279" v:shadowType="1"
					transform="matrix(1,0,0,1,0.345598,1.97279)" class="st1">
				<rect x="0" y="1069.51" width="200.659" height="85.0394" class="st2"/>
			</g>
			<rect x="0" y="1069.51" width="200.659" height="85.0394" class="st3"/>
			<text x="70.33" y="1118.69" class="st4" v:langID="2052"><v:paragraph v:horizAlign="1"/><v:tabList/>解码器</text>		</g>
		<g id="shape11-34" v:mID="11" v:groupContext="shape" transform="translate(149.419,-385.693)">
			<title>圆角矩形.11</title>
			<desc>隐藏向量 [BatchSize, SeqLen, HidSize]</desc>
			<v:userDefs>
				<v:ud v:nameU="CTypeTopLeftSnip" v:prompt="" v:val="VT0(0):5"/>
				<v:ud v:nameU="CTypeTopRightSnip" v:prompt="" v:val="VT0(0):5"/>
				<v:ud v:nameU="CTypeBotLeftSnip" v:prompt="" v:val="VT0(0):5"/>
				<v:ud v:nameU="CTypeBotRightSnip" v:prompt="" v:val="VT0(0):5"/>
				<v:ud v:nameU="CornerLockHoriz" v:prompt="" v:val="VT0(1):5"/>
				<v:ud v:nameU="CornerLockVert" v:prompt="" v:val="VT0(1):5"/>
				<v:ud v:nameU="CornerLockDiag" v:prompt="" v:val="VT0(0):5"/>
				<v:ud v:nameU="TopLeftOffset" v:prompt="" v:val="VT0(0.15748031496063):24"/>
				<v:ud v:nameU="TopRightOffset" v:prompt="" v:val="VT0(0.15748031496063):24"/>
				<v:ud v:nameU="BotLeftOffset" v:prompt="" v:val="VT0(0.15748031496063):24"/>
				<v:ud v:nameU="BotRightOffset" v:prompt="" v:val="VT0(0.15748031496063):24"/>
				<v:ud v:nameU="visVersion" v:prompt="" v:val="VT0(15):26"/>
				<v:ud v:nameU="TopLeftOffset" v:prompt="" v:val="VT0(0.2786934472174):1"/>
				<v:ud v:nameU="TopRightOffset" v:prompt="" v:val="VT0(0.2786934472174):1"/>
				<v:ud v:nameU="BotLeftOffset" v:prompt="" v:val="VT0(0.2786934472174):1"/>
				<v:ud v:nameU="BotRightOffset" v:prompt="" v:val="VT0(0.2786934472174):1"/>
			</v:userDefs>
			<v:textBlock v:margins="rect(4,4,4,4)" v:tabSpace="42.5197"/>
			<v:textRect cx="100.33" cy="1112.03" width="200.66" height="85.0394"/>
			<g id="shadow11-35" v:groupContext="shadow" v:shadowOffsetX="0.345598" v:shadowOffsetY="-1.97279" v:shadowType="1"
					transform="matrix(1,0,0,1,0.345598,1.97279)" class="st1">
				<path d="M20.07 1154.55 L180.59 1154.55 A20.0656 20.0656 -180 0 0 200.66 1134.49 L200.66 1089.58 A20.0656 20.0656
							 -180 0 0 180.59 1069.51 L20.07 1069.51 A20.0656 20.0656 -180 0 0 0 1089.58 L0 1134.49 A20.0656 20.0656
							 -180 0 0 20.07 1154.55 Z" class="st2"/>
			</g>
			<path d="M20.07 1154.55 L180.59 1154.55 A20.0656 20.0656 -180 0 0 200.66 1134.49 L200.66 1089.58 A20.0656 20.0656 -180
						 0 0 180.59 1069.51 L20.07 1069.51 A20.0656 20.0656 -180 0 0 0 1089.58 L0 1134.49 A20.0656 20.0656 -180 0
						 0 20.07 1154.55 Z" class="st3"/>
			<text x="60.33" y="1094.69" class="st4" v:langID="2052"><v:paragraph v:horizAlign="1"/><v:tabList/>隐藏向量<v:newlineChar/><tspan
						x="21.88" dy="1.233em" class="st8">[</tspan><tspan class="st8">BatchSize</tspan><tspan class="st8">, </tspan><tspan
						class="st8">SeqLen</tspan><tspan class="st8">,<v:newlineChar/></tspan><tspan x="67.67" dy="1.2em"
						class="st8">HidSize</tspan><tspan class="st8">]</tspan></text>		</g>
		<g id="shape12-47" v:mID="12" v:groupContext="shape" transform="translate(429.419,-621.813)">
			<title>圆角矩形.12</title>
			<desc>单词Logit [BatchSIze, SeqLen, VocabSize]</desc>
			<v:userDefs>
				<v:ud v:nameU="CTypeTopLeftSnip" v:prompt="" v:val="VT0(0):5"/>
				<v:ud v:nameU="CTypeTopRightSnip" v:prompt="" v:val="VT0(0):5"/>
				<v:ud v:nameU="CTypeBotLeftSnip" v:prompt="" v:val="VT0(0):5"/>
				<v:ud v:nameU="CTypeBotRightSnip" v:prompt="" v:val="VT0(0):5"/>
				<v:ud v:nameU="CornerLockHoriz" v:prompt="" v:val="VT0(1):5"/>
				<v:ud v:nameU="CornerLockVert" v:prompt="" v:val="VT0(1):5"/>
				<v:ud v:nameU="CornerLockDiag" v:prompt="" v:val="VT0(0):5"/>
				<v:ud v:nameU="TopLeftOffset" v:prompt="" v:val="VT0(0.15748031496063):24"/>
				<v:ud v:nameU="TopRightOffset" v:prompt="" v:val="VT0(0.15748031496063):24"/>
				<v:ud v:nameU="BotLeftOffset" v:prompt="" v:val="VT0(0.15748031496063):24"/>
				<v:ud v:nameU="BotRightOffset" v:prompt="" v:val="VT0(0.15748031496063):24"/>
				<v:ud v:nameU="visVersion" v:prompt="" v:val="VT0(15):26"/>
				<v:ud v:nameU="TopLeftOffset" v:prompt="" v:val="VT0(0.2786934472174):1"/>
				<v:ud v:nameU="TopRightOffset" v:prompt="" v:val="VT0(0.2786934472174):1"/>
				<v:ud v:nameU="BotLeftOffset" v:prompt="" v:val="VT0(0.2786934472174):1"/>
				<v:ud v:nameU="BotRightOffset" v:prompt="" v:val="VT0(0.2786934472174):1"/>
			</v:userDefs>
			<v:textBlock v:margins="rect(4,4,4,4)" v:tabSpace="42.5197"/>
			<v:textRect cx="100.33" cy="1112.03" width="200.66" height="85.0394"/>
			<g id="shadow12-48" v:groupContext="shadow" v:shadowOffsetX="0.345598" v:shadowOffsetY="-1.97279" v:shadowType="1"
					transform="matrix(1,0,0,1,0.345598,1.97279)" class="st1">
				<path d="M20.07 1154.55 L180.59 1154.55 A20.0656 20.0656 -180 0 0 200.66 1134.49 L200.66 1089.58 A20.0656 20.0656
							 -180 0 0 180.59 1069.51 L20.07 1069.51 A20.0656 20.0656 -180 0 0 0 1089.58 L0 1134.49 A20.0656 20.0656
							 -180 0 0 20.07 1154.55 Z" class="st2"/>
			</g>
			<path d="M20.07 1154.55 L180.59 1154.55 A20.0656 20.0656 -180 0 0 200.66 1134.49 L200.66 1089.58 A20.0656 20.0656 -180
						 0 0 180.59 1069.51 L20.07 1069.51 A20.0656 20.0656 -180 0 0 0 1089.58 L0 1134.49 A20.0656 20.0656 -180 0
						 0 20.07 1154.55 Z" class="st3"/>
			<text x="60.5" y="1094.69" class="st4" v:langID="2052"><v:paragraph v:horizAlign="1"/><v:tabList/>单词<tspan class="st8">Logit<v:newlineChar/></tspan><tspan
						x="21.65" dy="1.233em" class="st8">[</tspan><tspan class="st8">BatchSIze</tspan><tspan class="st8">, </tspan><tspan
						class="st8">SeqLen</tspan><tspan class="st8">,<v:newlineChar/></tspan><tspan x="56.23" dy="1.2em"
						class="st8">VocabSize</tspan><tspan class="st8">]</tspan></text>		</g>
		<g id="shape13-61" v:mID="13" v:groupContext="shape" v:layerMember="0" transform="translate(242.662,-212.598)">
			<title>动态连接线</title>
			<path d="M7.09 1154.55 L7.09 1107.4" class="st9"/>
		</g>
		<g id="shape14-67" v:mID="14" v:groupContext="shape" v:layerMember="0" transform="translate(242.662,-354.331)">
			<title>动态连接线.14</title>
			<path d="M7.09 1154.55 L7.09 1132.73" class="st9"/>
		</g>
		<g id="shape15-72" v:mID="15" v:groupContext="shape" v:layerMember="0" transform="translate(249.749,-470.732)">
			<title>动态连接线.15</title>
			<path d="M0 1154.55 L0 1090.53 L170.13 1090.53" class="st9"/>
		</g>
		<g id="shape16-77" v:mID="16" v:groupContext="shape" v:layerMember="0" transform="translate(537.589,-212.598)">
			<title>动态连接线.16</title>
			<path d="M-6.33 1154.55 L-7.84 1154.55 L-7.84 884.45" class="st9"/>
		</g>
		<g id="shape17-82" v:mID="17" v:groupContext="shape" v:layerMember="0" transform="translate(522.662,-577.276)">
			<title>动态连接线.17</title>
			<path d="M7.09 1154.55 L7.09 1119.55" class="st9"/>
		</g>
		<g id="shape18-87" v:mID="18" v:groupContext="shape" transform="translate(159.341,-621.813)">
			<title>剪去单角的矩形</title>
			<desc>Whisper</desc>
			<v:userDefs>
				<v:ud v:nameU="CTypeTopLeftSnip" v:prompt="" v:val="VT0(0):5"/>
				<v:ud v:nameU="CTypeTopRightSnip" v:prompt="" v:val="VT0(1):5"/>
				<v:ud v:nameU="CTypeBotLeftSnip" v:prompt="" v:val="VT0(1):5"/>
				<v:ud v:nameU="CTypeBotRightSnip" v:prompt="" v:val="VT0(0):5"/>
				<v:ud v:nameU="CornerLockHoriz" v:prompt="" v:val="VT0(0):5"/>
				<v:ud v:nameU="CornerLockVert" v:prompt="" v:val="VT0(0):5"/>
				<v:ud v:nameU="CornerLockDiag" v:prompt="" v:val="VT0(0):5"/>
				<v:ud v:nameU="TopLeftOffset" v:prompt="" v:val="VT0(0):24"/>
				<v:ud v:nameU="TopRightOffset" v:prompt="" v:val="VT0(0.15748031496063):24"/>
				<v:ud v:nameU="BotLeftOffset" v:prompt="" v:val="VT0(0):24"/>
				<v:ud v:nameU="BotRightOffset" v:prompt="" v:val="VT0(0):24"/>
				<v:ud v:nameU="visVersion" v:prompt="" v:val="VT0(15):26"/>
				<v:ud v:nameU="TopRightOffset" v:prompt="" v:val="VT0(0.26491391965835):1"/>
			</v:userDefs>
			<v:textBlock v:margins="rect(4,4,4,4)" v:tabSpace="42.5197"/>
			<v:textRect cx="95.369" cy="1112.03" width="190.74" height="85.0394"/>
			<g id="shadow18-88" v:groupContext="shadow" v:shadowOffsetX="0.345598" v:shadowOffsetY="-1.97279" v:shadowType="1"
					transform="matrix(1,0,0,1,0.345598,1.97279)" class="st1">
				<path d="M0 1154.55 L190.74 1154.55 L190.74 1088.59 L171.66 1069.51 L0 1069.51 L0 1154.55 Z" class="st2"/>
			</g>
			<path d="M0 1154.55 L190.74 1154.55 L190.74 1088.59 L171.66 1069.51 L0 1069.51 L0 1154.55 Z" class="st3"/>
			<text x="61.3" y="1118.03" class="st5" v:langID="2052"><v:paragraph v:horizAlign="1"/><v:tabList/>Whisper</text>		</g>
	</g>
</svg>
