<svg id="SvgjsSvg1006" width="163" height="528" xmlns="http://www.w3.org/2000/svg" version="1.1" xmlns:xlink="http://www.w3.org/1999/xlink" xmlns:svgjs="http://svgjs.com/svgjs"><defs id="SvgjsDefs1007"><pattern patternUnits="userSpaceOnUse" id="pattern_mark_0" width="300" height="300"><text x="150" y="100" fill="rgba(229,229,229,0.8)" font-size="18" transform="rotate(-45, 150, 150)" style="dominant-baseline: middle; text-anchor: middle;"></text></pattern><pattern patternUnits="userSpaceOnUse" id="pattern_mark_1" width="300" height="300"><text x="150" y="200" fill="rgba(229,229,229,0.8)" font-size="18" transform="rotate(-45, 150, 150)" style="dominant-baseline: middle; text-anchor: middle;"></text></pattern><marker id="SvgjsMarker1029" markerWidth="13" markerHeight="9" refX="9.5" refY="4.5" viewBox="0 0 13 9" orient="auto" markerUnits="userSpaceOnUse" stroke-dasharray="0,0"><path id="SvgjsPath1030" d="M0,0 L13,4.5 L0,9 L0,0" fill="#323232" stroke="#323232" stroke-width="1"></path></marker><marker id="SvgjsMarker1047" markerWidth="13" markerHeight="9" refX="9.5" refY="4.5" viewBox="0 0 13 9" orient="auto" markerUnits="userSpaceOnUse" stroke-dasharray="0,0"><path id="SvgjsPath1048" d="M0,0 L13,4.5 L0,9 L0,0" fill="#323232" stroke="#323232" stroke-width="1"></path></marker><marker id="SvgjsMarker1051" markerWidth="13" markerHeight="9" refX="9.5" refY="4.5" viewBox="0 0 13 9" orient="auto" markerUnits="userSpaceOnUse" stroke-dasharray="0,0"><path id="SvgjsPath1052" d="M0,0 L13,4.5 L0,9 L0,0" fill="#323232" stroke="#323232" stroke-width="1"></path></marker><marker id="SvgjsMarker1063" markerWidth="13" markerHeight="9" refX="9.5" refY="4.5" viewBox="0 0 13 9" orient="auto" markerUnits="userSpaceOnUse" stroke-dasharray="0,0"><path id="SvgjsPath1064" d="M0,0 L13,4.5 L0,9 L0,0" fill="#323232" stroke="#323232" stroke-width="1"></path></marker></defs><rect id="svgbackgroundid" width="163" height="528" fill="transparent"></rect><rect id="SvgjsRect1009" width="163" height="528" fill="url(#pattern_mark_0)"></rect><rect id="SvgjsRect1010" width="163" height="528" fill="url(#pattern_mark_1)"></rect><g id="SvgjsG1011" transform="translate(25,453)"><path id="SvgjsPath1012" d="M 16.666666666666668 0L 96.33333333333333 0C 118.55555555555556 0 118.55555555555556 50 96.33333333333333 50L 16.666666666666668 50C -5.555555555555556 50 -5.555555555555556 0 16.666666666666668 0Z" stroke="rgba(33,41,48,1)" stroke-width="1.5" fill-opacity="1" fill="#314aa4"></path><g id="SvgjsG1013"><text id="SvgjsText1014" font-family="微软雅黑" text-anchor="middle" font-size="13px" width="93px" fill="#ffffff" font-weight="400" align="middle" lineHeight="125%" anchor="middle" family="微软雅黑" size="13px" weight="400" font-style="" opacity="1" y="5.875" transform="rotate(0)"><tspan id="SvgjsTspan1015" dy="16" x="56.5"><tspan id="SvgjsTspan1016" style="text-decoration:;">输入（单词ID）</tspan></tspan><tspan id="SvgjsTspan1017" dy="16" x="56.5"><tspan id="SvgjsTspan1018" style="text-decoration:;">[BS, SL]</tspan></tspan></text></g></g><g id="SvgjsG1019" transform="translate(33.5,370)"><path id="SvgjsPath1020" d="M 0 0L 96 0L 96 54L 0 54Z" stroke="rgba(33,41,48,1)" stroke-width="1.5" fill-opacity="1" fill="#314aa4"></path><g id="SvgjsG1021"><text id="SvgjsText1022" font-family="微软雅黑" text-anchor="middle" font-size="13px" width="76px" fill="#ffffff" font-weight="400" align="middle" lineHeight="125%" anchor="middle" family="微软雅黑" size="13px" weight="400" font-style="" opacity="1" y="7.875" transform="rotate(0)"><tspan id="SvgjsTspan1023" dy="16" x="48"><tspan id="SvgjsTspan1024" style="text-decoration:;">WordEmb</tspan></tspan><tspan id="SvgjsTspan1025" dy="16" x="48"><tspan id="SvgjsTspan1026" style="text-decoration:;">[VS, ES]</tspan></tspan></text></g></g><g id="SvgjsG1027"><path id="SvgjsPath1028" d="M81.5 452.25L81.5 426.70000000000005" stroke="#323232" stroke-width="1.5" fill="none" marker-end="url(#SvgjsMarker1029)"></path></g><g id="SvgjsG1031" transform="translate(33.5,208)"><path id="SvgjsPath1032" d="M 0 0L 96 0L 96 54L 0 54Z" stroke="rgba(33,41,48,1)" stroke-width="1.5" fill-opacity="1" fill="#314aa4"></path><g id="SvgjsG1033"><text id="SvgjsText1034" font-family="微软雅黑" text-anchor="middle" font-size="13px" width="76px" fill="#ffffff" font-weight="400" align="middle" lineHeight="125%" anchor="middle" family="微软雅黑" size="13px" weight="400" font-style="" opacity="1" y="16.375" transform="rotate(0)"><tspan id="SvgjsTspan1035" dy="16" x="48"><tspan id="SvgjsTspan1036" style="text-decoration:;">Encoder</tspan></tspan></text></g></g><g id="SvgjsG1037" transform="translate(31.5,291)"><path id="SvgjsPath1038" d="M 16.666666666666668 0L 83.33333333333333 0C 105.55555555555556 0 105.55555555555556 50 83.33333333333333 50L 16.666666666666668 50C -5.555555555555556 50 -5.555555555555556 0 16.666666666666668 0Z" stroke="rgba(33,41,48,1)" stroke-width="1.5" fill-opacity="1" fill="#314aa4"></path><g id="SvgjsG1039"><text id="SvgjsText1040" font-family="微软雅黑" text-anchor="middle" font-size="13px" width="80px" fill="#ffffff" font-weight="400" align="middle" lineHeight="125%" anchor="middle" family="微软雅黑" size="13px" weight="400" font-style="" opacity="1" y="5.875" transform="rotate(0)"><tspan id="SvgjsTspan1041" dy="16" x="50"><tspan id="SvgjsTspan1042" style="text-decoration:;">词向量</tspan></tspan><tspan id="SvgjsTspan1043" dy="16" x="50"><tspan id="SvgjsTspan1044" style="text-decoration:;">[SL, BS, ES]</tspan></tspan></text></g></g><g id="SvgjsG1045"><path id="SvgjsPath1046" d="M81.5 290.25L81.5 276.5L81.5 276.5L81.5 264.70000000000005" stroke="#323232" stroke-width="1.5" fill="none" marker-end="url(#SvgjsMarker1047)"></path></g><g id="SvgjsG1049"><path id="SvgjsPath1050" d="M81.5 369.25L81.5 355.5L81.5 355.5L81.5 343.70000000000005" stroke="#323232" stroke-width="1.5" fill="none" marker-end="url(#SvgjsMarker1051)"></path></g><g id="SvgjsG1053" transform="translate(31.5,126)"><path id="SvgjsPath1054" d="M 16.666666666666668 0L 83.33333333333333 0C 105.55555555555556 0 105.55555555555556 50 83.33333333333333 50L 16.666666666666668 50C -5.555555555555556 50 -5.555555555555556 0 16.666666666666668 0Z" stroke="rgba(33,41,48,1)" stroke-width="1.5" fill-opacity="1" fill="#314aa4"></path><g id="SvgjsG1055"><text id="SvgjsText1056" font-family="微软雅黑" text-anchor="middle" font-size="13px" width="80px" fill="#ffffff" font-weight="400" align="middle" lineHeight="125%" anchor="middle" family="微软雅黑" size="13px" weight="400" font-style="" opacity="1" y="5.875" transform="rotate(0)"><tspan id="SvgjsTspan1057" dy="16" x="50"><tspan id="SvgjsTspan1058" style="text-decoration:;">输出</tspan></tspan><tspan id="SvgjsTspan1059" dy="16" x="50"><tspan id="SvgjsTspan1060" style="text-decoration:;">[BS, SL, ES]</tspan></tspan></text></g></g><g id="SvgjsG1061"><path id="SvgjsPath1062" d="M81.5 207.25L81.5 192L81.5 192L81.5 178.70000000000005" stroke="#323232" stroke-width="1.5" fill="none" marker-end="url(#SvgjsMarker1063)"></path></g><g id="SvgjsG1065" transform="translate(31.5,25)"><path id="SvgjsPath1066" d="M 0 25L 25 0L 100 0L 100 57L 0 57L 0 25Z" stroke="rgba(33,41,48,1)" stroke-width="1.5" fill-opacity="1" fill="#314aa4"></path><g id="SvgjsG1067"><text id="SvgjsText1068" font-family="微软雅黑" text-anchor="middle" font-size="13px" width="80px" fill="#ffffff" font-weight="400" align="middle" lineHeight="125%" anchor="middle" family="微软雅黑" size="13px" weight="400" font-style="" opacity="1" y="9.375" transform="rotate(0)"><tspan id="SvgjsTspan1069" dy="16" x="50"><tspan id="SvgjsTspan1070" style="text-decoration:;">ChatGLMMo</tspan></tspan><tspan id="SvgjsTspan1071" dy="16" x="50"><tspan id="SvgjsTspan1072" style="text-decoration:;">del</tspan></tspan></text></g></g></svg>