<svg id="SvgjsSvg1006" width="320.75" height="1027.9999389648438" xmlns="http://www.w3.org/2000/svg" version="1.1" xmlns:xlink="http://www.w3.org/1999/xlink" xmlns:svgjs="http://svgjs.com/svgjs"><defs id="SvgjsDefs1007"><pattern patternUnits="userSpaceOnUse" id="pattern_mark_0" width="300" height="300"><text x="150" y="100" fill="rgba(229,229,229,0.8)" font-size="18" transform="rotate(-45, 150, 150)" style="dominant-baseline: middle; text-anchor: middle;"></text></pattern><pattern patternUnits="userSpaceOnUse" id="pattern_mark_1" width="300" height="300"><text x="150" y="200" fill="rgba(229,229,229,0.8)" font-size="18" transform="rotate(-45, 150, 150)" style="dominant-baseline: middle; text-anchor: middle;"></text></pattern><marker id="SvgjsMarker1033" markerWidth="13" markerHeight="9" refX="9.5" refY="4.5" viewBox="0 0 13 9" orient="auto" markerUnits="userSpaceOnUse" stroke-dasharray="0,0"><path id="SvgjsPath1034" d="M0,0 L13,4.5 L0,9 L0,0" fill="#323232" stroke="#323232" stroke-width="1"></path></marker><marker id="SvgjsMarker1037" markerWidth="13" markerHeight="9" refX="9.5" refY="4.5" viewBox="0 0 13 9" orient="auto" markerUnits="userSpaceOnUse" stroke-dasharray="0,0"><path id="SvgjsPath1038" d="M0,0 L13,4.5 L0,9 L0,0" fill="#323232" stroke="#323232" stroke-width="1"></path></marker><marker id="SvgjsMarker1047" markerWidth="13" markerHeight="9" refX="9.5" refY="4.5" viewBox="0 0 13 9" orient="auto" markerUnits="userSpaceOnUse" stroke-dasharray="0,0"><path id="SvgjsPath1048" d="M0,0 L13,4.5 L0,9 L0,0" fill="#323232" stroke="#323232" stroke-width="1"></path></marker><marker id="SvgjsMarker1057" markerWidth="13" markerHeight="9" refX="9.5" refY="4.5" viewBox="0 0 13 9" orient="auto" markerUnits="userSpaceOnUse" stroke-dasharray="0,0"><path id="SvgjsPath1058" d="M0,0 L13,4.5 L0,9 L0,0" fill="#323232" stroke="#323232" stroke-width="1"></path></marker><marker id="SvgjsMarker1061" markerWidth="13" markerHeight="9" refX="9.5" refY="4.5" viewBox="0 0 13 9" orient="auto" markerUnits="userSpaceOnUse" stroke-dasharray="0,0"><path id="SvgjsPath1062" d="M0,0 L13,4.5 L0,9 L0,0" fill="#323232" stroke="#323232" stroke-width="1"></path></marker><marker id="SvgjsMarker1071" markerWidth="13" markerHeight="9" refX="9.5" refY="4.5" viewBox="0 0 13 9" orient="auto" markerUnits="userSpaceOnUse" stroke-dasharray="0,0"><path id="SvgjsPath1072" d="M0,0 L13,4.5 L0,9 L0,0" fill="#323232" stroke="#323232" stroke-width="1"></path></marker><marker id="SvgjsMarker1099" markerWidth="13" markerHeight="9" refX="9.5" refY="4.5" viewBox="0 0 13 9" orient="auto" markerUnits="userSpaceOnUse" stroke-dasharray="0,0"><path id="SvgjsPath1100" d="M0,0 L13,4.5 L0,9 L0,0" fill="#323232" stroke="#323232" stroke-width="1"></path></marker><marker id="SvgjsMarker1103" markerWidth="13" markerHeight="9" refX="9.5" refY="4.5" viewBox="0 0 13 9" orient="auto" markerUnits="userSpaceOnUse" stroke-dasharray="0,0"><path id="SvgjsPath1104" d="M0,0 L13,4.5 L0,9 L0,0" fill="#323232" stroke="#323232" stroke-width="1"></path></marker><marker id="SvgjsMarker1107" markerWidth="13" markerHeight="9" refX="9.5" refY="4.5" viewBox="0 0 13 9" orient="auto" markerUnits="userSpaceOnUse" stroke-dasharray="0,0"><path id="SvgjsPath1108" d="M0,0 L13,4.5 L0,9 L0,0" fill="#323232" stroke="#323232" stroke-width="1"></path></marker><marker id="SvgjsMarker1111" markerWidth="13" markerHeight="9" refX="9.5" refY="4.5" viewBox="0 0 13 9" orient="auto" markerUnits="userSpaceOnUse" stroke-dasharray="0,0"><path id="SvgjsPath1112" d="M0,0 L13,4.5 L0,9 L0,0" fill="#323232" stroke="#323232" stroke-width="1"></path></marker><marker id="SvgjsMarker1115" markerWidth="13" markerHeight="9" refX="9.5" refY="4.5" viewBox="0 0 13 9" orient="auto" markerUnits="userSpaceOnUse" stroke-dasharray="0,0"><path id="SvgjsPath1116" d="M0,0 L13,4.5 L0,9 L0,0" fill="#323232" stroke="#323232" stroke-width="1"></path></marker><marker id="SvgjsMarker1127" markerWidth="13" markerHeight="9" refX="9.5" refY="4.5" viewBox="0 0 13 9" orient="auto" markerUnits="userSpaceOnUse" stroke-dasharray="0,0"><path id="SvgjsPath1128" d="M0,0 L13,4.5 L0,9 L0,0" fill="#323232" stroke="#323232" stroke-width="1"></path></marker></defs><rect id="svgbackgroundid" width="320.75" height="1027.9999389648438" fill="transparent"></rect><rect id="SvgjsRect1009" width="320.75" height="1027.9999389648438" fill="url(#pattern_mark_0)"></rect><rect id="SvgjsRect1010" width="320.75" height="1027.9999389648438" fill="url(#pattern_mark_1)"></rect><g id="SvgjsG1011" transform="translate(166,953.0000610351562)"><path id="SvgjsPath1012" d="M 16.666666666666668 0L 83.33333333333333 0C 105.55555555555556 0 105.55555555555556 50 83.33333333333333 50L 16.666666666666668 50C -5.555555555555556 50 -5.555555555555556 0 16.666666666666668 0Z" stroke="rgba(33,41,48,1)" stroke-width="1.5" fill-opacity="1" fill="#314aa4"></path><g id="SvgjsG1013"><text id="SvgjsText1014" font-family="微软雅黑" text-anchor="middle" font-size="13px" width="80px" fill="#ffffff" font-weight="400" align="middle" lineHeight="125%" anchor="middle" family="微软雅黑" size="13px" weight="400" font-style="" opacity="1" y="5.875" transform="rotate(0)"><tspan id="SvgjsTspan1015" dy="16" x="50"><tspan id="SvgjsTspan1016" style="text-decoration:;">输入</tspan></tspan><tspan id="SvgjsTspan1017" dy="16" x="50"><tspan id="SvgjsTspan1018" style="text-decoration:;">[SL, BS, ES]</tspan></tspan></text></g></g><g id="SvgjsG1019" transform="translate(165.5,851.0000610351562)"><path id="SvgjsPath1020" d="M 0 0L 101 0L 101 54L 0 54Z" stroke="rgba(33,41,48,1)" stroke-width="1.5" fill-opacity="1" fill="#314aa4"></path><g id="SvgjsG1021"><text id="SvgjsText1022" font-family="微软雅黑" text-anchor="middle" font-size="13px" width="81px" fill="#ffffff" font-weight="400" align="middle" lineHeight="125%" anchor="middle" family="微软雅黑" size="13px" weight="400" font-style="" opacity="1" y="16.375" transform="rotate(0)"><tspan id="SvgjsTspan1023" dy="16" x="50.5"><tspan id="SvgjsTspan1024" style="text-decoration:;">LayerNorm1</tspan></tspan></text></g></g><g id="SvgjsG1025" transform="translate(165.5,762.0000610351562)"><path id="SvgjsPath1026" d="M 0 0L 101 0L 101 54L 0 54Z" stroke="rgba(33,41,48,1)" stroke-width="1.5" fill-opacity="1" fill="#314aa4"></path><g id="SvgjsG1027"><text id="SvgjsText1028" font-family="微软雅黑" text-anchor="middle" font-size="13px" width="81px" fill="#ffffff" font-weight="400" align="middle" lineHeight="125%" anchor="middle" family="微软雅黑" size="13px" weight="400" font-style="" opacity="1" y="16.375" transform="rotate(0)"><tspan id="SvgjsTspan1029" dy="16" x="50.5"><tspan id="SvgjsTspan1030" style="text-decoration:;">Attention</tspan></tspan></text></g></g><g id="SvgjsG1031"><path id="SvgjsPath1032" d="M216 952.2500610351562L216 929.0000610351562L216 929.0000610351562L216 907.7000610351563" stroke="#323232" stroke-width="1.5" fill="none" marker-end="url(#SvgjsMarker1033)"></path></g><g id="SvgjsG1035"><path id="SvgjsPath1036" d="M216 850.2500610351562L216 833.5000610351562L216 833.5000610351562L216 818.7000610351563" stroke="#323232" stroke-width="1.5" fill="none" marker-end="url(#SvgjsMarker1037)"></path></g><g id="SvgjsG1039" transform="translate(165.5,673.0000610351562)"><path id="SvgjsPath1040" d="M 0 0L 101 0L 101 54L 0 54Z" stroke="rgba(33,41,48,1)" stroke-width="1.5" fill-opacity="1" fill="#314aa4"></path><g id="SvgjsG1041"><text id="SvgjsText1042" font-family="微软雅黑" text-anchor="middle" font-size="13px" width="81px" fill="#ffffff" font-weight="400" align="middle" lineHeight="125%" anchor="middle" family="微软雅黑" size="13px" weight="400" font-style="" opacity="1" y="16.375" transform="rotate(0)"><tspan id="SvgjsTspan1043" dy="16" x="50.5"><tspan id="SvgjsTspan1044" style="text-decoration:;">Dropout</tspan></tspan></text></g></g><g id="SvgjsG1045"><path id="SvgjsPath1046" d="M216 761.2500610351562L216 744.5000610351562L216 744.5000610351562L216 729.7000610351563" stroke="#323232" stroke-width="1.5" fill="none" marker-end="url(#SvgjsMarker1047)"></path></g><g id="SvgjsG1049" transform="translate(165.5,579.0000610351562)"><path id="SvgjsPath1050" d="M 0 0L 101 0L 101 54L 0 54Z" stroke="rgba(33,41,48,1)" stroke-width="1.5" fill-opacity="1" fill="#314aa4"></path><g id="SvgjsG1051"><text id="SvgjsText1052" font-family="微软雅黑" text-anchor="middle" font-size="13px" width="81px" fill="#ffffff" font-weight="400" align="middle" lineHeight="125%" anchor="middle" family="微软雅黑" size="13px" weight="400" font-style="" opacity="1" y="16.375" transform="rotate(0)"><tspan id="SvgjsTspan1053" dy="16" x="50.5"><tspan id="SvgjsTspan1054" style="text-decoration:;">⊕</tspan></tspan></text></g></g><g id="SvgjsG1055"><path id="SvgjsPath1056" d="M216 672.2500610351562L216 653.0000610351562L216 653.0000610351562L216 635.7000610351563" stroke="#323232" stroke-width="1.5" fill="none" marker-end="url(#SvgjsMarker1057)"></path></g><g id="SvgjsG1059"><path id="SvgjsPath1060" d="M266.75 978.0000610351562L296 978.0000610351562L296 606.0000610351562L268.7 606.0000610351562" stroke="#323232" stroke-width="1.5" fill="none" marker-end="url(#SvgjsMarker1061)"></path></g><g id="SvgjsG1063" transform="translate(166,489.00006103515625)"><path id="SvgjsPath1064" d="M 16.666666666666668 0L 83.33333333333333 0C 105.55555555555556 0 105.55555555555556 50 83.33333333333333 50L 16.666666666666668 50C -5.555555555555556 50 -5.555555555555556 0 16.666666666666668 0Z" stroke="rgba(33,41,48,1)" stroke-width="1.5" fill-opacity="1" fill="#314aa4"></path><g id="SvgjsG1065"><text id="SvgjsText1066" font-family="微软雅黑" text-anchor="middle" font-size="13px" width="80px" fill="#ffffff" font-weight="400" align="middle" lineHeight="125%" anchor="middle" family="微软雅黑" size="13px" weight="400" font-style="" opacity="1" y="14.375" transform="rotate(0)"><tspan id="SvgjsTspan1067" dy="16" x="50"><tspan id="SvgjsTspan1068" style="text-decoration:;">[SL, BS, ES]</tspan></tspan></text></g></g><g id="SvgjsG1069"><path id="SvgjsPath1070" d="M216 578.2500610351562L216 559.0000610351562L216 559.0000610351562L216 541.7000610351563" stroke="#323232" stroke-width="1.5" fill="none" marker-end="url(#SvgjsMarker1071)"></path></g><g id="SvgjsG1073" transform="translate(166,381.00006103515625)"><path id="SvgjsPath1074" d="M 0 0L 101 0L 101 54L 0 54Z" stroke="rgba(33,41,48,1)" stroke-width="1.5" fill-opacity="1" fill="#314aa4"></path><g id="SvgjsG1075"><text id="SvgjsText1076" font-family="微软雅黑" text-anchor="middle" font-size="13px" width="81px" fill="#ffffff" font-weight="400" align="middle" lineHeight="125%" anchor="middle" family="微软雅黑" size="13px" weight="400" font-style="" opacity="1" y="16.375" transform="rotate(0)"><tspan id="SvgjsTspan1077" dy="16" x="50.5"><tspan id="SvgjsTspan1078" style="text-decoration:;">LayerNorm2</tspan></tspan></text></g></g><g id="SvgjsG1079" transform="translate(166,292.00006103515625)"><path id="SvgjsPath1080" d="M 0 0L 101 0L 101 54L 0 54Z" stroke="rgba(33,41,48,1)" stroke-width="1.5" fill-opacity="1" fill="#314aa4"></path><g id="SvgjsG1081"><text id="SvgjsText1082" font-family="微软雅黑" text-anchor="middle" font-size="13px" width="81px" fill="#ffffff" font-weight="400" align="middle" lineHeight="125%" anchor="middle" family="微软雅黑" size="13px" weight="400" font-style="" opacity="1" y="16.375" transform="rotate(0)"><tspan id="SvgjsTspan1083" dy="16" x="50.5"><tspan id="SvgjsTspan1084" style="text-decoration:;">Attention</tspan></tspan></text></g></g><g id="SvgjsG1085" transform="translate(166,203.00006103515625)"><path id="SvgjsPath1086" d="M 0 0L 101 0L 101 54L 0 54Z" stroke="rgba(33,41,48,1)" stroke-width="1.5" fill-opacity="1" fill="#314aa4"></path><g id="SvgjsG1087"><text id="SvgjsText1088" font-family="微软雅黑" text-anchor="middle" font-size="13px" width="81px" fill="#ffffff" font-weight="400" align="middle" lineHeight="125%" anchor="middle" family="微软雅黑" size="13px" weight="400" font-style="" opacity="1" y="16.375" transform="rotate(0)"><tspan id="SvgjsTspan1089" dy="16" x="50.5"><tspan id="SvgjsTspan1090" style="text-decoration:;">Dropout</tspan></tspan></text></g></g><g id="SvgjsG1091" transform="translate(166,109.00006103515625)"><path id="SvgjsPath1092" d="M 0 0L 101 0L 101 54L 0 54Z" stroke="rgba(33,41,48,1)" stroke-width="1.5" fill-opacity="1" fill="#314aa4"></path><g id="SvgjsG1093"><text id="SvgjsText1094" font-family="微软雅黑" text-anchor="middle" font-size="13px" width="81px" fill="#ffffff" font-weight="400" align="middle" lineHeight="125%" anchor="middle" family="微软雅黑" size="13px" weight="400" font-style="" opacity="1" y="16.375" transform="rotate(0)"><tspan id="SvgjsTspan1095" dy="16" x="50.5"><tspan id="SvgjsTspan1096" style="text-decoration:;">⊕</tspan></tspan></text></g></g><g id="SvgjsG1097"><path id="SvgjsPath1098" d="M216 488.25006103515625L216 462.00006103515625L216 462.00006103515625L216 437.7000610351563" stroke="#323232" stroke-width="1.5" fill="none" marker-end="url(#SvgjsMarker1099)"></path></g><g id="SvgjsG1101"><path id="SvgjsPath1102" d="M216.5 380.25006103515625L216.5 363.50006103515625L216.5 363.50006103515625L216.5 348.7000610351563" stroke="#323232" stroke-width="1.5" fill="none" marker-end="url(#SvgjsMarker1103)"></path></g><g id="SvgjsG1105"><path id="SvgjsPath1106" d="M216.5 291.25006103515625L216.5 274.50006103515625L216.5 274.50006103515625L216.5 259.7000610351563" stroke="#323232" stroke-width="1.5" fill="none" marker-end="url(#SvgjsMarker1107)"></path></g><g id="SvgjsG1109"><path id="SvgjsPath1110" d="M216.5 202.25006103515625L216.5 183.00006103515625L216.5 183.00006103515625L216.5 165.7000610351563" stroke="#323232" stroke-width="1.5" fill="none" marker-end="url(#SvgjsMarker1111)"></path></g><g id="SvgjsG1113"><path id="SvgjsPath1114" d="M266.75 514.0000610351562L296 514.0000610351562L296 136.00006103515625L268.7 136.00006103515625" stroke="#323232" stroke-width="1.5" fill="none" marker-end="url(#SvgjsMarker1115)"></path></g><g id="SvgjsG1117" transform="translate(166.5,25.00006103515625)"><path id="SvgjsPath1118" d="M 16.666666666666668 0L 83.33333333333333 0C 105.55555555555556 0 105.55555555555556 50 83.33333333333333 50L 16.666666666666668 50C -5.555555555555556 50 -5.555555555555556 0 16.666666666666668 0Z" stroke="rgba(33,41,48,1)" stroke-width="1.5" fill-opacity="1" fill="#314aa4"></path><g id="SvgjsG1119"><text id="SvgjsText1120" font-family="微软雅黑" text-anchor="middle" font-size="13px" width="80px" fill="#ffffff" font-weight="400" align="middle" lineHeight="125%" anchor="middle" family="微软雅黑" size="13px" weight="400" font-style="" opacity="1" y="5.875" transform="rotate(0)"><tspan id="SvgjsTspan1121" dy="16" x="50"><tspan id="SvgjsTspan1122" style="text-decoration:;">输出</tspan></tspan><tspan id="SvgjsTspan1123" dy="16" x="50"><tspan id="SvgjsTspan1124" style="text-decoration:;">[SL, BS, ES]</tspan></tspan></text></g></g><g id="SvgjsG1125"><path id="SvgjsPath1126" d="M216.5 108.25006103515625L216.5 77.7000610351563" stroke="#323232" stroke-width="1.5" fill="none" marker-end="url(#SvgjsMarker1127)"></path></g><g id="SvgjsG1129" transform="translate(25,25.340087890625)"><path id="SvgjsPath1130" d="M 0 24.65997314453125L 24.65997314453125 0L 100 0L 100 49.3199462890625L 0 49.3199462890625L 0 24.65997314453125Z" stroke="rgba(33,41,48,1)" stroke-width="1.5" fill-opacity="1" fill="#314aa4"></path><g id="SvgjsG1131"><text id="SvgjsText1132" font-family="微软雅黑" text-anchor="middle" font-size="13px" width="80px" fill="#ffffff" font-weight="400" align="middle" lineHeight="125%" anchor="middle" family="微软雅黑" size="13px" weight="400" font-style="" opacity="1" y="14.03497314453125" transform="rotate(0)"><tspan id="SvgjsTspan1133" dy="16" x="50"><tspan id="SvgjsTspan1134" style="text-decoration:;fill: rgb(33, 41, 48);">GLMBlock</tspan></tspan></text></g></g></svg>