<svg id="SvgjsSvg1006" width="285" height="480" xmlns="http://www.w3.org/2000/svg" version="1.1" xmlns:xlink="http://www.w3.org/1999/xlink" xmlns:svgjs="http://svgjs.com/svgjs"><defs id="SvgjsDefs1007"><pattern patternUnits="userSpaceOnUse" id="pattern_mark_0" width="300" height="300"><text x="150" y="100" fill="rgba(229,229,229,0.8)" font-size="18" transform="rotate(-45, 150, 150)" style="dominant-baseline: middle; text-anchor: middle;"></text></pattern><pattern patternUnits="userSpaceOnUse" id="pattern_mark_1" width="300" height="300"><text x="150" y="200" fill="rgba(229,229,229,0.8)" font-size="18" transform="rotate(-45, 150, 150)" style="dominant-baseline: middle; text-anchor: middle;"></text></pattern><marker id="SvgjsMarker1029" markerWidth="13" markerHeight="9" refX="9.5" refY="4.5" viewBox="0 0 13 9" orient="auto" markerUnits="userSpaceOnUse" stroke-dasharray="0,0"><path id="SvgjsPath1030" d="M0,0 L13,4.5 L0,9 L0,0" fill="#323232" stroke="#323232" stroke-width="1"></path></marker><marker id="SvgjsMarker1039" markerWidth="13" markerHeight="9" refX="9.5" refY="4.5" viewBox="0 0 13 9" orient="auto" markerUnits="userSpaceOnUse" stroke-dasharray="0,0"><path id="SvgjsPath1040" d="M0,0 L13,4.5 L0,9 L0,0" fill="#323232" stroke="#323232" stroke-width="1"></path></marker><marker id="SvgjsMarker1051" markerWidth="13" markerHeight="9" refX="9.5" refY="4.5" viewBox="0 0 13 9" orient="auto" markerUnits="userSpaceOnUse" stroke-dasharray="0,0"><path id="SvgjsPath1052" d="M0,0 L13,4.5 L0,9 L0,0" fill="#323232" stroke="#323232" stroke-width="1"></path></marker><marker id="SvgjsMarker1063" markerWidth="13" markerHeight="9" refX="9.5" refY="4.5" viewBox="0 0 13 9" orient="auto" markerUnits="userSpaceOnUse" stroke-dasharray="0,0"><path id="SvgjsPath1064" d="M0,0 L13,4.5 L0,9 L0,0" fill="#323232" stroke="#323232" stroke-width="1"></path></marker></defs><rect id="svgbackgroundid" width="285" height="480" fill="transparent"></rect><rect id="SvgjsRect1009" width="285" height="480" fill="url(#pattern_mark_0)"></rect><rect id="SvgjsRect1010" width="285" height="480" fill="url(#pattern_mark_1)"></rect><g id="SvgjsG1011" transform="translate(160,405)"><path id="SvgjsPath1012" d="M 16.666666666666668 0L 83.33333333333333 0C 105.55555555555556 0 105.55555555555556 50 83.33333333333333 50L 16.666666666666668 50C -5.555555555555556 50 -5.555555555555556 0 16.666666666666668 0Z" stroke="rgba(33,41,48,1)" stroke-width="1.5" fill-opacity="1" fill="#314aa4"></path><g id="SvgjsG1013"><text id="SvgjsText1014" font-family="微软雅黑" text-anchor="middle" font-size="13px" width="80px" fill="#ffffff" font-weight="400" align="middle" lineHeight="125%" anchor="middle" family="微软雅黑" size="13px" weight="400" font-style="" opacity="1" y="5.875" transform="rotate(0)"><tspan id="SvgjsTspan1015" dy="16" x="50"><tspan id="SvgjsTspan1016" style="text-decoration:;">输入</tspan></tspan><tspan id="SvgjsTspan1017" dy="16" x="50"><tspan id="SvgjsTspan1018" style="text-decoration:;">[SL, BS, ES]</tspan></tspan></text></g></g><g id="SvgjsG1019" transform="translate(162,306)"><path id="SvgjsPath1020" d="M 0 0L 96 0L 96 54L 0 54Z" stroke="rgba(33,41,48,1)" stroke-width="1.5" fill-opacity="1" fill="#314aa4"></path><g id="SvgjsG1021"><text id="SvgjsText1022" font-family="微软雅黑" text-anchor="middle" font-size="13px" width="76px" fill="#ffffff" font-weight="400" align="middle" lineHeight="125%" anchor="middle" family="微软雅黑" size="13px" weight="400" font-style="" opacity="1" y="7.875" transform="rotate(0)"><tspan id="SvgjsTspan1023" dy="16" x="48"><tspan id="SvgjsTspan1024" style="text-decoration:;">Linear1</tspan></tspan><tspan id="SvgjsTspan1025" dy="16" x="48"><tspan id="SvgjsTspan1026" style="text-decoration:;">[ES, 4ES]</tspan></tspan></text></g></g><g id="SvgjsG1027"><path id="SvgjsPath1028" d="M210 404.25L210 382.5L210 382.5L210 362.70000000000005" stroke="#323232" stroke-width="1.5" fill="none" marker-end="url(#SvgjsMarker1029)"></path></g><g id="SvgjsG1031" transform="translate(162,219)"><path id="SvgjsPath1032" d="M 0 0L 96 0L 96 54L 0 54Z" stroke="rgba(33,41,48,1)" stroke-width="1.5" fill-opacity="1" fill="#314aa4"></path><g id="SvgjsG1033"><text id="SvgjsText1034" font-family="微软雅黑" text-anchor="middle" font-size="13px" width="76px" fill="#ffffff" font-weight="400" align="middle" lineHeight="125%" anchor="middle" family="微软雅黑" size="13px" weight="400" font-style="" opacity="1" y="16.375" transform="rotate(0)"><tspan id="SvgjsTspan1035" dy="16" x="48"><tspan id="SvgjsTspan1036" style="text-decoration:;">SwiGLU</tspan></tspan></text></g></g><g id="SvgjsG1037"><path id="SvgjsPath1038" d="M210 305.25L210 289.5L210 289.5L210 275.70000000000005" stroke="#323232" stroke-width="1.5" fill="none" marker-end="url(#SvgjsMarker1039)"></path></g><g id="SvgjsG1041" transform="translate(162,120)"><path id="SvgjsPath1042" d="M 0 0L 96 0L 96 54L 0 54Z" stroke="rgba(33,41,48,1)" stroke-width="1.5" fill-opacity="1" fill="#314aa4"></path><g id="SvgjsG1043"><text id="SvgjsText1044" font-family="微软雅黑" text-anchor="middle" font-size="13px" width="76px" fill="#ffffff" font-weight="400" align="middle" lineHeight="125%" anchor="middle" family="微软雅黑" size="13px" weight="400" font-style="" opacity="1" y="7.875" transform="rotate(0)"><tspan id="SvgjsTspan1045" dy="16" x="48"><tspan id="SvgjsTspan1046" style="text-decoration:;">Linear2</tspan></tspan><tspan id="SvgjsTspan1047" dy="16" x="48"><tspan id="SvgjsTspan1048" style="text-decoration:;">[4ES, ES]</tspan></tspan></text></g></g><g id="SvgjsG1049"><path id="SvgjsPath1050" d="M210 218.25L210 196.5L210 196.5L210 176.70000000000005" stroke="#323232" stroke-width="1.5" fill="none" marker-end="url(#SvgjsMarker1051)"></path></g><g id="SvgjsG1053" transform="translate(160,25)"><path id="SvgjsPath1054" d="M 16.666666666666668 0L 83.33333333333333 0C 105.55555555555556 0 105.55555555555556 50 83.33333333333333 50L 16.666666666666668 50C -5.555555555555556 50 -5.555555555555556 0 16.666666666666668 0Z" stroke="rgba(33,41,48,1)" stroke-width="1.5" fill-opacity="1" fill="#314aa4"></path><g id="SvgjsG1055"><text id="SvgjsText1056" font-family="微软雅黑" text-anchor="middle" font-size="13px" width="80px" fill="#ffffff" font-weight="400" align="middle" lineHeight="125%" anchor="middle" family="微软雅黑" size="13px" weight="400" font-style="" opacity="1" y="5.875" transform="rotate(0)"><tspan id="SvgjsTspan1057" dy="16" x="50"><tspan id="SvgjsTspan1058" style="text-decoration:;">输入</tspan></tspan><tspan id="SvgjsTspan1059" dy="16" x="50"><tspan id="SvgjsTspan1060" style="text-decoration:;">[SL, BS, ES]</tspan></tspan></text></g></g><g id="SvgjsG1061"><path id="SvgjsPath1062" d="M210 119.25L210 77.70000000000005" stroke="#323232" stroke-width="1.5" fill="none" marker-end="url(#SvgjsMarker1063)"></path></g><g id="SvgjsG1065" transform="translate(25,25.1199951171875)"><path id="SvgjsPath1066" d="M 0 24.8800048828125L 24.8800048828125 0L 100 0L 100 49.760009765625L 0 49.760009765625L 0 24.8800048828125Z" stroke="rgba(33,41,48,1)" stroke-width="1.5" fill-opacity="1" fill="#314aa4"></path><g id="SvgjsG1067"><text id="SvgjsText1068" font-family="微软雅黑" text-anchor="middle" font-size="13px" width="80px" fill="#ffffff" font-weight="400" align="middle" lineHeight="125%" anchor="middle" family="微软雅黑" size="13px" weight="400" font-style="" opacity="1" y="14.2550048828125" transform="rotate(0)"><tspan id="SvgjsTspan1069" dy="16" x="50"><tspan id="SvgjsTspan1070" style="text-decoration:;">MLP/FFN</tspan></tspan></text></g></g></svg>