<svg id="SvgjsSvg1006" width="579" height="772" xmlns="http://www.w3.org/2000/svg" version="1.1" xmlns:xlink="http://www.w3.org/1999/xlink" xmlns:svgjs="http://svgjs.com/svgjs"><defs id="SvgjsDefs1007"><pattern patternUnits="userSpaceOnUse" id="pattern_mark_0" width="300" height="300"><text x="150" y="100" fill="rgba(229,229,229,0.8)" font-size="18" transform="rotate(-45, 150, 150)" style="dominant-baseline: middle; text-anchor: middle;"></text></pattern><pattern patternUnits="userSpaceOnUse" id="pattern_mark_1" width="300" height="300"><text x="150" y="200" fill="rgba(229,229,229,0.8)" font-size="18" transform="rotate(-45, 150, 150)" style="dominant-baseline: middle; text-anchor: middle;"></text></pattern><marker id="SvgjsMarker1051" markerWidth="13" markerHeight="9" refX="9.5" refY="4.5" viewBox="0 0 13 9" orient="auto" markerUnits="userSpaceOnUse" stroke-dasharray="0,0"><path id="SvgjsPath1052" d="M0,0 L13,4.5 L0,9 L0,0" fill="#323232" stroke="#323232" stroke-width="1"></path></marker><marker id="SvgjsMarker1055" markerWidth="13" markerHeight="9" refX="9.5" refY="4.5" viewBox="0 0 13 9" orient="auto" markerUnits="userSpaceOnUse" stroke-dasharray="0,0"><path id="SvgjsPath1056" d="M0,0 L13,4.5 L0,9 L0,0" fill="#323232" stroke="#323232" stroke-width="1"></path></marker><marker id="SvgjsMarker1059" markerWidth="13" markerHeight="9" refX="9.5" refY="4.5" viewBox="0 0 13 9" orient="auto" markerUnits="userSpaceOnUse" stroke-dasharray="0,0"><path id="SvgjsPath1060" d="M0,0 L13,4.5 L0,9 L0,0" fill="#323232" stroke="#323232" stroke-width="1"></path></marker><marker id="SvgjsMarker1087" markerWidth="13" markerHeight="9" refX="9.5" refY="4.5" viewBox="0 0 13 9" orient="auto" markerUnits="userSpaceOnUse" stroke-dasharray="0,0"><path id="SvgjsPath1088" d="M0,0 L13,4.5 L0,9 L0,0" fill="#323232" stroke="#323232" stroke-width="1"></path></marker><marker id="SvgjsMarker1091" markerWidth="13" markerHeight="9" refX="9.5" refY="4.5" viewBox="0 0 13 9" orient="auto" markerUnits="userSpaceOnUse" stroke-dasharray="0,0"><path id="SvgjsPath1092" d="M0,0 L13,4.5 L0,9 L0,0" fill="#323232" stroke="#323232" stroke-width="1"></path></marker><marker id="SvgjsMarker1095" markerWidth="13" markerHeight="9" refX="9.5" refY="4.5" viewBox="0 0 13 9" orient="auto" markerUnits="userSpaceOnUse" stroke-dasharray="0,0"><path id="SvgjsPath1096" d="M0,0 L13,4.5 L0,9 L0,0" fill="#323232" stroke="#323232" stroke-width="1"></path></marker><marker id="SvgjsMarker1105" markerWidth="13" markerHeight="9" refX="9.5" refY="4.5" viewBox="0 0 13 9" orient="auto" markerUnits="userSpaceOnUse" stroke-dasharray="0,0"><path id="SvgjsPath1106" d="M0,0 L13,4.5 L0,9 L0,0" fill="#323232" stroke="#323232" stroke-width="1"></path></marker><marker id="SvgjsMarker1131" markerWidth="13" markerHeight="9" refX="9.5" refY="4.5" viewBox="0 0 13 9" orient="auto" markerUnits="userSpaceOnUse" stroke-dasharray="0,0"><path id="SvgjsPath1132" d="M0,0 L13,4.5 L0,9 L0,0" fill="#323232" stroke="#323232" stroke-width="1"></path></marker><marker id="SvgjsMarker1135" markerWidth="13" markerHeight="9" refX="9.5" refY="4.5" viewBox="0 0 13 9" orient="auto" markerUnits="userSpaceOnUse" stroke-dasharray="0,0"><path id="SvgjsPath1136" d="M0,0 L13,4.5 L0,9 L0,0" fill="#323232" stroke="#323232" stroke-width="1"></path></marker><marker id="SvgjsMarker1145" markerWidth="13" markerHeight="9" refX="9.5" refY="4.5" viewBox="0 0 13 9" orient="auto" markerUnits="userSpaceOnUse" stroke-dasharray="0,0"><path id="SvgjsPath1146" d="M0,0 L13,4.5 L0,9 L0,0" fill="#323232" stroke="#323232" stroke-width="1"></path></marker><marker id="SvgjsMarker1149" markerWidth="13" markerHeight="9" refX="9.5" refY="4.5" viewBox="0 0 13 9" orient="auto" markerUnits="userSpaceOnUse" stroke-dasharray="0,0"><path id="SvgjsPath1150" d="M0,0 L13,4.5 L0,9 L0,0" fill="#323232" stroke="#323232" stroke-width="1"></path></marker><marker id="SvgjsMarker1163" markerWidth="13" markerHeight="9" refX="9.5" refY="4.5" viewBox="0 0 13 9" orient="auto" markerUnits="userSpaceOnUse" stroke-dasharray="0,0"><path id="SvgjsPath1164" d="M0,0 L13,4.5 L0,9 L0,0" fill="#323232" stroke="#323232" stroke-width="1"></path></marker><marker id="SvgjsMarker1175" markerWidth="13" markerHeight="9" refX="9.5" refY="4.5" viewBox="0 0 13 9" orient="auto" markerUnits="userSpaceOnUse" stroke-dasharray="0,0"><path id="SvgjsPath1176" d="M0,0 L13,4.5 L0,9 L0,0" fill="#323232" stroke="#323232" stroke-width="1"></path></marker><marker id="SvgjsMarker1189" markerWidth="13" markerHeight="9" refX="9.5" refY="4.5" viewBox="0 0 13 9" orient="auto" markerUnits="userSpaceOnUse" stroke-dasharray="0,0"><path id="SvgjsPath1190" d="M0,0 L13,4.5 L0,9 L0,0" fill="#323232" stroke="#323232" stroke-width="1"></path></marker><marker id="SvgjsMarker1193" markerWidth="13" markerHeight="9" refX="9.5" refY="4.5" viewBox="0 0 13 9" orient="auto" markerUnits="userSpaceOnUse" stroke-dasharray="0,0"><path id="SvgjsPath1194" d="M0,0 L13,4.5 L0,9 L0,0" fill="#323232" stroke="#323232" stroke-width="1"></path></marker><marker id="SvgjsMarker1197" markerWidth="13" markerHeight="9" refX="9.5" refY="4.5" viewBox="0 0 13 9" orient="auto" markerUnits="userSpaceOnUse" stroke-dasharray="0,0"><path id="SvgjsPath1198" d="M0,0 L13,4.5 L0,9 L0,0" fill="#323232" stroke="#323232" stroke-width="1"></path></marker></defs><rect id="svgbackgroundid" width="579" height="772" fill="transparent"></rect><rect id="SvgjsRect1009" width="579" height="772" fill="url(#pattern_mark_0)"></rect><rect id="SvgjsRect1010" width="579" height="772" fill="url(#pattern_mark_1)"></rect><g id="SvgjsG1011" transform="translate(25,25)"><path id="SvgjsPath1012" d="M 0 25L 25 0L 100 0L 100 50L 0 50L 0 25Z" stroke="rgba(33,41,48,1)" stroke-width="1.5" fill-opacity="1" fill="#314aa4"></path><g id="SvgjsG1013"><text id="SvgjsText1014" font-family="微软雅黑" text-anchor="middle" font-size="13px" width="80px" fill="#ffffff" font-weight="400" align="middle" lineHeight="125%" anchor="middle" family="微软雅黑" size="13px" weight="400" font-style="" opacity="1" y="14.375" transform="rotate(0)"><tspan id="SvgjsTspan1015" dy="16" x="50"><tspan id="SvgjsTspan1016" style="text-decoration:;">AFTLocal</tspan></tspan></text></g></g><g id="SvgjsG1017" transform="translate(196,697)"><path id="SvgjsPath1018" d="M 16.666666666666668 0L 83.33333333333333 0C 105.55555555555556 0 105.55555555555556 50 83.33333333333333 50L 16.666666666666668 50C -5.555555555555556 50 -5.555555555555556 0 16.666666666666668 0Z" stroke="rgba(33,41,48,1)" stroke-width="1.5" fill-opacity="1" fill="#314aa4"></path><g id="SvgjsG1019"><text id="SvgjsText1020" font-family="微软雅黑" text-anchor="middle" font-size="13px" width="80px" fill="#ffffff" font-weight="400" align="middle" lineHeight="125%" anchor="middle" family="微软雅黑" size="13px" weight="400" font-style="" opacity="1" y="5.875" transform="rotate(0)"><tspan id="SvgjsTspan1021" dy="16" x="50"><tspan id="SvgjsTspan1022" style="text-decoration:;">输入</tspan></tspan><tspan id="SvgjsTspan1023" dy="16" x="50"><tspan id="SvgjsTspan1024" style="text-decoration:;">[BS, SL, ES]</tspan></tspan></text></g></g><g id="SvgjsG1025" transform="translate(88,586)"><path id="SvgjsPath1026" d="M 0 0L 96 0L 96 54L 0 54Z" stroke="rgba(33,41,48,1)" stroke-width="1.5" fill-opacity="1" fill="#314aa4"></path><g id="SvgjsG1027"><text id="SvgjsText1028" font-family="微软雅黑" text-anchor="middle" font-size="13px" width="76px" fill="#ffffff" font-weight="400" align="middle" lineHeight="125%" anchor="middle" family="微软雅黑" size="13px" weight="400" font-style="" opacity="1" y="7.875" transform="rotate(0)"><tspan id="SvgjsTspan1029" dy="16" x="48"><tspan id="SvgjsTspan1030" style="text-decoration:;">LinearQ</tspan></tspan><tspan id="SvgjsTspan1031" dy="16" x="48"><tspan id="SvgjsTspan1032" style="text-decoration:;">[ES, HIS]</tspan></tspan></text></g></g><g id="SvgjsG1033" transform="translate(198,586)"><path id="SvgjsPath1034" d="M 0 0L 96 0L 96 54L 0 54Z" stroke="rgba(33,41,48,1)" stroke-width="1.5" fill-opacity="1" fill="#314aa4"></path><g id="SvgjsG1035"><text id="SvgjsText1036" font-family="微软雅黑" text-anchor="middle" font-size="13px" width="76px" fill="#ffffff" font-weight="400" align="middle" lineHeight="125%" anchor="middle" family="微软雅黑" size="13px" weight="400" font-style="" opacity="1" y="7.875" transform="rotate(0)"><tspan id="SvgjsTspan1037" dy="16" x="48"><tspan id="SvgjsTspan1038" style="text-decoration:;">LinearK</tspan></tspan><tspan id="SvgjsTspan1039" dy="16" x="48"><tspan id="SvgjsTspan1040" style="text-decoration:;fill: rgb(255, 255, 255);">[ES, HIS]</tspan></tspan></text></g></g><g id="SvgjsG1041" transform="translate(308,586)"><path id="SvgjsPath1042" d="M 0 0L 96 0L 96 54L 0 54Z" stroke="rgba(33,41,48,1)" stroke-width="1.5" fill-opacity="1" fill="#314aa4"></path><g id="SvgjsG1043"><text id="SvgjsText1044" font-family="微软雅黑" text-anchor="middle" font-size="13px" width="76px" fill="#ffffff" font-weight="400" align="middle" lineHeight="125%" anchor="middle" family="微软雅黑" size="13px" weight="400" font-style="" opacity="1" y="7.875" transform="rotate(0)"><tspan id="SvgjsTspan1045" dy="16" x="48"><tspan id="SvgjsTspan1046" style="text-decoration:;">LinearV</tspan></tspan><tspan id="SvgjsTspan1047" dy="16" x="48"><tspan id="SvgjsTspan1048" style="text-decoration:;fill: rgb(255, 255, 255);">[ES, HIS]</tspan></tspan></text></g></g><g id="SvgjsG1049"><path id="SvgjsPath1050" d="M195.25 722L136 722L136 642.7" stroke="#323232" stroke-width="1.5" fill="none" marker-end="url(#SvgjsMarker1051)"></path></g><g id="SvgjsG1053"><path id="SvgjsPath1054" d="M246 696.25L246 668.5L246 668.5L246 642.7" stroke="#323232" stroke-width="1.5" fill="none" marker-end="url(#SvgjsMarker1055)"></path></g><g id="SvgjsG1057"><path id="SvgjsPath1058" d="M296.75 722L356 722L356 642.7" stroke="#323232" stroke-width="1.5" fill="none" marker-end="url(#SvgjsMarker1059)"></path></g><g id="SvgjsG1061" transform="translate(86,497.5999755859375)"><path id="SvgjsPath1062" d="M 16.666666666666668 0L 83.33333333333333 0C 105.55555555555556 0 105.55555555555556 50 83.33333333333333 50L 16.666666666666668 50C -5.555555555555556 50 -5.555555555555556 0 16.666666666666668 0Z" stroke="rgba(33,41,48,1)" stroke-width="1.5" fill-opacity="1" fill="#314aa4"></path><g id="SvgjsG1063"><text id="SvgjsText1064" font-family="微软雅黑" text-anchor="middle" font-size="13px" width="80px" fill="#ffffff" font-weight="400" align="middle" lineHeight="125%" anchor="middle" family="微软雅黑" size="13px" weight="400" font-style="" opacity="1" y="5.875" transform="rotate(0)"><tspan id="SvgjsTspan1065" dy="16" x="50"><tspan id="SvgjsTspan1066" style="text-decoration:;">Q</tspan></tspan><tspan id="SvgjsTspan1067" dy="16" x="50"><tspan id="SvgjsTspan1068" style="text-decoration:;">[BS, SL, HIS]</tspan></tspan></text></g></g><g id="SvgjsG1069" transform="translate(196,497.5999755859375)"><path id="SvgjsPath1070" d="M 16.666666666666668 0L 83.33333333333333 0C 105.55555555555556 0 105.55555555555556 50 83.33333333333333 50L 16.666666666666668 50C -5.555555555555556 50 -5.555555555555556 0 16.666666666666668 0Z" stroke="rgba(33,41,48,1)" stroke-width="1.5" fill-opacity="1" fill="#314aa4"></path><g id="SvgjsG1071"><text id="SvgjsText1072" font-family="微软雅黑" text-anchor="middle" font-size="13px" width="80px" fill="#ffffff" font-weight="400" align="middle" lineHeight="125%" anchor="middle" family="微软雅黑" size="13px" weight="400" font-style="" opacity="1" y="5.875" transform="rotate(0)"><tspan id="SvgjsTspan1073" dy="16" x="50"><tspan id="SvgjsTspan1074" style="text-decoration:;">K</tspan></tspan><tspan id="SvgjsTspan1075" dy="16" x="50"><tspan id="SvgjsTspan1076" style="text-decoration:;">[BS, SL, HIS]</tspan></tspan></text></g></g><g id="SvgjsG1077" transform="translate(306,497.5999755859375)"><path id="SvgjsPath1078" d="M 16.666666666666668 0L 83.33333333333333 0C 105.55555555555556 0 105.55555555555556 50 83.33333333333333 50L 16.666666666666668 50C -5.555555555555556 50 -5.555555555555556 0 16.666666666666668 0Z" stroke="rgba(33,41,48,1)" stroke-width="1.5" fill-opacity="1" fill="#314aa4"></path><g id="SvgjsG1079"><text id="SvgjsText1080" font-family="微软雅黑" text-anchor="middle" font-size="13px" width="80px" fill="#ffffff" font-weight="400" align="middle" lineHeight="125%" anchor="middle" family="微软雅黑" size="13px" weight="400" font-style="" opacity="1" y="5.875" transform="rotate(0)"><tspan id="SvgjsTspan1081" dy="16" x="50"><tspan id="SvgjsTspan1082" style="text-decoration:;">V</tspan></tspan><tspan id="SvgjsTspan1083" dy="16" x="50"><tspan id="SvgjsTspan1084" style="text-decoration:;">[BS, SL, HIS]</tspan></tspan></text></g></g><g id="SvgjsG1085"><path id="SvgjsPath1086" d="M136 585.25L136 566.7999877929688L136 566.7999877929688L136 550.2999755859375" stroke="#323232" stroke-width="1.5" fill="none" marker-end="url(#SvgjsMarker1087)"></path></g><g id="SvgjsG1089"><path id="SvgjsPath1090" d="M246 585.25L246 566.7999877929688L246 566.7999877929688L246 550.2999755859375" stroke="#323232" stroke-width="1.5" fill="none" marker-end="url(#SvgjsMarker1091)"></path></g><g id="SvgjsG1093"><path id="SvgjsPath1094" d="M356 585.25L356 566.7999877929688L356 566.7999877929688L356 550.2999755859375" stroke="#323232" stroke-width="1.5" fill="none" marker-end="url(#SvgjsMarker1095)"></path></g><g id="SvgjsG1097" transform="translate(88,401)"><path id="SvgjsPath1098" d="M 0 0L 96 0L 96 54L 0 54Z" stroke="rgba(33,41,48,1)" stroke-width="1.5" fill-opacity="1" fill="#314aa4"></path><g id="SvgjsG1099"><text id="SvgjsText1100" font-family="微软雅黑" text-anchor="middle" font-size="13px" width="76px" fill="#ffffff" font-weight="400" align="middle" lineHeight="125%" anchor="middle" family="微软雅黑" size="13px" weight="400" font-style="" opacity="1" y="16.375" transform="rotate(0)"><tspan id="SvgjsTspan1101" dy="16" x="48"><tspan id="SvgjsTspan1102" style="text-decoration:;">Sigmoid</tspan></tspan></text></g></g><g id="SvgjsG1103"><path id="SvgjsPath1104" d="M136 496.8499755859375L136 476.29998779296875L136 476.29998779296875L136 457.70000000000005" stroke="#323232" stroke-width="1.5" fill="none" marker-end="url(#SvgjsMarker1105)"></path></g><g id="SvgjsG1107" transform="translate(198,401)"><path id="SvgjsPath1108" d="M 0 0L 356 0L 356 54L 0 54Z" stroke="rgba(33,41,48,1)" stroke-width="1.5" fill-opacity="1" fill="#314aa4"></path><g id="SvgjsG1109"><text id="SvgjsText1110" font-family="微软雅黑" text-anchor="middle" font-size="13px" width="336px" fill="#ffffff" font-weight="400" align="middle" lineHeight="125%" anchor="middle" family="微软雅黑" size="13px" weight="400" font-style="" opacity="1" y="7.875" transform="rotate(0)"><tspan id="SvgjsTspan1111" dy="16" x="178"><tspan id="SvgjsTspan1112" style="text-decoration:;">exp(W) @ (exp(K) * V)</tspan></tspan><tspan id="SvgjsTspan1113" dy="16" x="178"><tspan id="SvgjsTspan1114" style="text-decoration:;">/ (exp(W) @ exp(K))</tspan></tspan></text></g></g><g id="SvgjsG1115" transform="translate(437,588)"><path id="SvgjsPath1116" d="M 16.666666666666668 0L 83.33333333333333 0C 105.55555555555556 0 105.55555555555556 50 83.33333333333333 50L 16.666666666666668 50C -5.555555555555556 50 -5.555555555555556 0 16.666666666666668 0Z" stroke="rgba(33,41,48,1)" stroke-width="1.5" fill-opacity="1" fill="#314aa4"></path><g id="SvgjsG1117"><text id="SvgjsText1118" font-family="微软雅黑" text-anchor="middle" font-size="13px" width="80px" fill="#ffffff" font-weight="400" align="middle" lineHeight="125%" anchor="middle" family="微软雅黑" size="13px" weight="400" font-style="" opacity="1" y="5.875" transform="rotate(0)"><tspan id="SvgjsTspan1119" dy="16" x="50"><tspan id="SvgjsTspan1120" style="text-decoration:;">W:Param</tspan></tspan><tspan id="SvgjsTspan1121" dy="16" x="50"><tspan id="SvgjsTspan1122" style="text-decoration:;">[SL, SL]</tspan></tspan></text></g></g><g id="SvgjsG1123" transform="translate(200,211)"><path id="SvgjsPath1124" d="M 0 0L 96 0L 96 54L 0 54Z" stroke="rgba(33,41,48,1)" stroke-width="1.5" fill-opacity="1" fill="#314aa4"></path><g id="SvgjsG1125"><text id="SvgjsText1126" font-family="微软雅黑" text-anchor="middle" font-size="13px" width="76px" fill="#ffffff" font-weight="400" align="middle" lineHeight="125%" anchor="middle" family="微软雅黑" size="13px" weight="400" font-style="" opacity="1" y="16.375" transform="rotate(0)"><tspan id="SvgjsTspan1127" dy="16" x="48"><tspan id="SvgjsTspan1128" style="text-decoration:;">*</tspan></tspan></text></g></g><g id="SvgjsG1129"><path id="SvgjsPath1130" d="M136 400.25L136 238L197.3 238" stroke="#323232" stroke-width="1.5" fill="none" marker-end="url(#SvgjsMarker1131)"></path></g><g id="SvgjsG1133"><path id="SvgjsPath1134" d="M356 496.8499755859375L356 476.29998779296875L356 476.29998779296875L356 457.70000000000005" stroke="#323232" stroke-width="1.5" fill="none" marker-end="url(#SvgjsMarker1135)"></path></g><g id="SvgjsG1137" transform="translate(308,308.4000244140625)"><path id="SvgjsPath1138" d="M 16.666666666666668 0L 83.33333333333333 0C 105.55555555555556 0 105.55555555555556 50 83.33333333333333 50L 16.666666666666668 50C -5.555555555555556 50 -5.555555555555556 0 16.666666666666668 0Z" stroke="rgba(33,41,48,1)" stroke-width="1.5" fill-opacity="1" fill="#314aa4"></path><g id="SvgjsG1139"><text id="SvgjsText1140" font-family="微软雅黑" text-anchor="middle" font-size="13px" width="80px" fill="#ffffff" font-weight="400" align="middle" lineHeight="125%" anchor="middle" family="微软雅黑" size="13px" weight="400" font-style="" opacity="1" y="14.375" transform="rotate(0)"><tspan id="SvgjsTspan1141" dy="16" x="50"><tspan id="SvgjsTspan1142" style="text-decoration:;font-size: inherit;">[BS, SL, HIS]</tspan></tspan></text></g></g><g id="SvgjsG1143"><path id="SvgjsPath1144" d="M358 400.25L358 379.70001220703125L358 379.70001220703125L358 361.10002441406255" stroke="#323232" stroke-width="1.5" fill="none" marker-end="url(#SvgjsMarker1145)"></path></g><g id="SvgjsG1147"><path id="SvgjsPath1148" d="M358 307.6500244140625L358 238L298.7 238" stroke="#323232" stroke-width="1.5" fill="none" marker-end="url(#SvgjsMarker1149)"></path></g><g id="SvgjsG1151" transform="translate(200,109)"><path id="SvgjsPath1152" d="M 0 0L 96 0L 96 54L 0 54Z" stroke="rgba(33,41,48,1)" stroke-width="1.5" fill-opacity="1" fill="#314aa4"></path><g id="SvgjsG1153"><text id="SvgjsText1154" font-family="微软雅黑" text-anchor="middle" font-size="13px" width="76px" fill="#ffffff" font-weight="400" align="middle" lineHeight="125%" anchor="middle" family="微软雅黑" size="13px" weight="400" font-style="" opacity="1" y="7.875" transform="rotate(0)"><tspan id="SvgjsTspan1155" dy="16" x="48"><tspan id="SvgjsTspan1156" style="text-decoration:;">LinearO</tspan></tspan><tspan id="SvgjsTspan1157" dy="16" x="48"><tspan id="SvgjsTspan1158" style="text-decoration:;fill: rgb(255, 255, 255);">[</tspan><tspan id="SvgjsTspan1159" style="text-decoration:;">HIS</tspan><tspan id="SvgjsTspan1160" style="text-decoration:;font-size: inherit;">, ES]</tspan></tspan></text></g></g><g id="SvgjsG1161"><path id="SvgjsPath1162" d="M248 210.25L248 187L248 187L248 165.70000000000005" stroke="#323232" stroke-width="1.5" fill="none" marker-end="url(#SvgjsMarker1163)"></path></g><g id="SvgjsG1165" transform="translate(198,25)"><path id="SvgjsPath1166" d="M 16.666666666666668 0L 83.33333333333333 0C 105.55555555555556 0 105.55555555555556 50 83.33333333333333 50L 16.666666666666668 50C -5.555555555555556 50 -5.555555555555556 0 16.666666666666668 0Z" stroke="rgba(33,41,48,1)" stroke-width="1.5" fill-opacity="1" fill="#314aa4"></path><g id="SvgjsG1167"><text id="SvgjsText1168" font-family="微软雅黑" text-anchor="middle" font-size="13px" width="80px" fill="#ffffff" font-weight="400" align="middle" lineHeight="125%" anchor="middle" family="微软雅黑" size="13px" weight="400" font-style="" opacity="1" y="5.875" transform="rotate(0)"><tspan id="SvgjsTspan1169" dy="16" x="50"><tspan id="SvgjsTspan1170" style="text-decoration:;">输出</tspan></tspan><tspan id="SvgjsTspan1171" dy="16" x="50"><tspan id="SvgjsTspan1172" style="text-decoration:;">[BS, SL, ES]</tspan></tspan></text></g></g><g id="SvgjsG1173"><path id="SvgjsPath1174" d="M248 108.25L248 92L248 92L248 77.70000000000005" stroke="#323232" stroke-width="1.5" fill="none" marker-end="url(#SvgjsMarker1175)"></path></g><g id="SvgjsG1177" transform="translate(420,495.5999755859375)"><path id="SvgjsPath1178" d="M 0 0L 134 0L 134 54L 0 54Z" stroke="rgba(33,41,48,1)" stroke-width="1.5" fill-opacity="1" fill="#314aa4"></path><g id="SvgjsG1179"><text id="SvgjsText1180" font-family="微软雅黑" text-anchor="middle" font-size="13px" width="114px" fill="#ffffff" font-weight="400" align="middle" lineHeight="125%" anchor="middle" family="微软雅黑" size="13px" weight="400" font-style="" opacity="1" y="-0.125" transform="rotate(0)"><tspan id="SvgjsTspan1181" dy="16" x="67"><tspan id="SvgjsTspan1182" style="text-decoration:;">mask</tspan></tspan><tspan id="SvgjsTspan1183" dy="16" x="67"><tspan id="SvgjsTspan1184" style="text-decoration:;">[SL, SL]</tspan></tspan><tspan id="SvgjsTspan1185" dy="16" x="67"><tspan id="SvgjsTspan1186" style="text-decoration:;fill: rgb(255, 255, 255);">abs(i - j) &lt; S? 1: 0</tspan></tspan></text></g></g><g id="SvgjsG1187"><path id="SvgjsPath1188" d="M487 587.25L487 568.7999877929688L487 568.7999877929688L487 552.2999755859375" stroke="#323232" stroke-width="1.5" fill="none" marker-end="url(#SvgjsMarker1189)"></path></g><g id="SvgjsG1191"><path id="SvgjsPath1192" d="M487 494.8499755859375L487 475.29998779296875L487 475.29998779296875L487 457.70000000000005" stroke="#323232" stroke-width="1.5" fill="none" marker-end="url(#SvgjsMarker1193)"></path></g><g id="SvgjsG1195"><path id="SvgjsPath1196" d="M246 496.8499755859375L246 475.79998779296875L246 475.79998779296875L246 456.70000000000005" stroke="#323232" stroke-width="1.5" fill="none" marker-end="url(#SvgjsMarker1197)"></path></g></svg>