<svg id="SvgjsSvg1006" width="560.5" height="586.4400024414062" xmlns="http://www.w3.org/2000/svg" version="1.1" xmlns:xlink="http://www.w3.org/1999/xlink" xmlns:svgjs="http://svgjs.com/svgjs"><defs id="SvgjsDefs1007"><pattern patternUnits="userSpaceOnUse" id="pattern_mark_0" width="300" height="300"><text x="150" y="100" fill="rgba(229,229,229,0.8)" font-size="18" transform="rotate(-45, 150, 150)" style="dominant-baseline: middle; text-anchor: middle;"></text></pattern><pattern patternUnits="userSpaceOnUse" id="pattern_mark_1" width="300" height="300"><text x="150" y="200" fill="rgba(229,229,229,0.8)" font-size="18" transform="rotate(-45, 150, 150)" style="dominant-baseline: middle; text-anchor: middle;"></text></pattern><marker id="SvgjsMarker1045" markerWidth="13" markerHeight="9" refX="9.5" refY="4.5" viewBox="0 0 13 9" orient="auto" markerUnits="userSpaceOnUse" stroke-dasharray="0,0"><path id="SvgjsPath1046" d="M0,0 L13,4.5 L0,9 L0,0" fill="#323232" stroke="#323232" stroke-width="1"></path></marker><marker id="SvgjsMarker1049" markerWidth="13" markerHeight="9" refX="9.5" refY="4.5" viewBox="0 0 13 9" orient="auto" markerUnits="userSpaceOnUse" stroke-dasharray="0,0"><path id="SvgjsPath1050" d="M0,0 L13,4.5 L0,9 L0,0" fill="#323232" stroke="#323232" stroke-width="1"></path></marker><marker id="SvgjsMarker1053" markerWidth="13" markerHeight="9" refX="9.5" refY="4.5" viewBox="0 0 13 9" orient="auto" markerUnits="userSpaceOnUse" stroke-dasharray="0,0"><path id="SvgjsPath1054" d="M0,0 L13,4.5 L0,9 L0,0" fill="#323232" stroke="#323232" stroke-width="1"></path></marker><marker id="SvgjsMarker1057" markerWidth="13" markerHeight="9" refX="9.5" refY="4.5" viewBox="0 0 13 9" orient="auto" markerUnits="userSpaceOnUse" stroke-dasharray="0,0"><path id="SvgjsPath1058" d="M0,0 L13,4.5 L0,9 L0,0" fill="#323232" stroke="#323232" stroke-width="1"></path></marker><marker id="SvgjsMarker1061" markerWidth="13" markerHeight="9" refX="9.5" refY="4.5" viewBox="0 0 13 9" orient="auto" markerUnits="userSpaceOnUse" stroke-dasharray="0,0"><path id="SvgjsPath1062" d="M0,0 L13,4.5 L0,9 L0,0" fill="#323232" stroke="#323232" stroke-width="1"></path></marker><marker id="SvgjsMarker1073" markerWidth="13" markerHeight="9" refX="9.5" refY="4.5" viewBox="0 0 13 9" orient="auto" markerUnits="userSpaceOnUse" stroke-dasharray="0,0"><path id="SvgjsPath1074" d="M0,0 L13,4.5 L0,9 L0,0" fill="#323232" stroke="#323232" stroke-width="1"></path></marker><marker id="SvgjsMarker1113" markerWidth="13" markerHeight="9" refX="9.5" refY="4.5" viewBox="0 0 13 9" orient="auto" markerUnits="userSpaceOnUse" stroke-dasharray="0,0"><path id="SvgjsPath1114" d="M0,0 L13,4.5 L0,9 L0,0" fill="#323232" stroke="#323232" stroke-width="1"></path></marker><marker id="SvgjsMarker1117" markerWidth="13" markerHeight="9" refX="9.5" refY="4.5" viewBox="0 0 13 9" orient="auto" markerUnits="userSpaceOnUse" stroke-dasharray="0,0"><path id="SvgjsPath1118" d="M0,0 L13,4.5 L0,9 L0,0" fill="#323232" stroke="#323232" stroke-width="1"></path></marker><marker id="SvgjsMarker1121" markerWidth="13" markerHeight="9" refX="9.5" refY="4.5" viewBox="0 0 13 9" orient="auto" markerUnits="userSpaceOnUse" stroke-dasharray="0,0"><path id="SvgjsPath1122" d="M0,0 L13,4.5 L0,9 L0,0" fill="#323232" stroke="#323232" stroke-width="1"></path></marker><marker id="SvgjsMarker1125" markerWidth="13" markerHeight="9" refX="9.5" refY="4.5" viewBox="0 0 13 9" orient="auto" markerUnits="userSpaceOnUse" stroke-dasharray="0,0"><path id="SvgjsPath1126" d="M0,0 L13,4.5 L0,9 L0,0" fill="#323232" stroke="#323232" stroke-width="1"></path></marker><marker id="SvgjsMarker1129" markerWidth="13" markerHeight="9" refX="9.5" refY="4.5" viewBox="0 0 13 9" orient="auto" markerUnits="userSpaceOnUse" stroke-dasharray="0,0"><path id="SvgjsPath1130" d="M0,0 L13,4.5 L0,9 L0,0" fill="#323232" stroke="#323232" stroke-width="1"></path></marker><marker id="SvgjsMarker1133" markerWidth="13" markerHeight="9" refX="9.5" refY="4.5" viewBox="0 0 13 9" orient="auto" markerUnits="userSpaceOnUse" stroke-dasharray="0,0"><path id="SvgjsPath1134" d="M0,0 L13,4.5 L0,9 L0,0" fill="#323232" stroke="#323232" stroke-width="1"></path></marker></defs><rect id="svgbackgroundid" width="560.5" height="586.4400024414062" fill="transparent"></rect><rect id="SvgjsRect1009" width="560.5" height="586.4400024414062" fill="url(#pattern_mark_0)"></rect><rect id="SvgjsRect1010" width="560.5" height="586.4400024414062" fill="url(#pattern_mark_1)"></rect><g id="SvgjsG1011" transform="translate(187.84334309895831,480.44001388549805)"><path id="SvgjsPath1012" d="M 16.666666666666668 0L 83.33333333333333 0C 105.55555555555556 0 105.55555555555556 50 83.33333333333333 50L 16.666666666666668 50C -5.555555555555556 50 -5.555555555555556 0 16.666666666666668 0Z" stroke="rgba(33,41,48,1)" stroke-width="1.5" fill-opacity="1" fill="#314aa4"></path><g id="SvgjsG1013"><text id="SvgjsText1014" font-family="微软雅黑" text-anchor="middle" font-size="13px" width="80px" fill="#ffffff" font-weight="400" align="middle" lineHeight="125%" anchor="middle" family="微软雅黑" size="13px" weight="400" font-style="" opacity="1" y="5.875" transform="rotate(0)"><tspan id="SvgjsTspan1015" dy="16" x="50"><tspan id="SvgjsTspan1016" style="text-decoration:;">输入</tspan></tspan><tspan id="SvgjsTspan1017" dy="16" x="50"><tspan id="SvgjsTspan1018" style="text-decoration:;">[BS, SL, ES]</tspan></tspan></text></g></g><g id="SvgjsG1019" transform="translate(189.84334309895826,398.44001388549805)"><path id="SvgjsPath1020" d="M 0 0L 96.00000000000011 0L 96.00000000000011 54L 0 54Z" stroke="rgba(33,41,48,1)" stroke-width="1.5" fill-opacity="1" fill="#314aa4"></path><g id="SvgjsG1021"><text id="SvgjsText1022" font-family="微软雅黑" text-anchor="middle" font-size="13px" width="77px" fill="#ffffff" font-weight="400" align="middle" lineHeight="125%" anchor="middle" family="微软雅黑" size="13px" weight="400" font-style="" opacity="1" y="16.375" transform="rotate(0)"><tspan id="SvgjsTspan1023" dy="16" x="48.5"><tspan id="SvgjsTspan1024" style="text-decoration:;">LayerNorm1</tspan></tspan></text></g></g><g id="SvgjsG1025" transform="translate(187.84334309895837,316.44001388549805)"><path id="SvgjsPath1026" d="M 0 0L 96 0L 96 54L 0 54Z" stroke="rgba(33,41,48,1)" stroke-width="1.5" fill-opacity="1" fill="#314aa4"></path><g id="SvgjsG1027"><text id="SvgjsText1028" font-family="微软雅黑" text-anchor="middle" font-size="13px" width="76px" fill="#ffffff" font-weight="400" align="middle" lineHeight="125%" anchor="middle" family="微软雅黑" size="13px" weight="400" font-style="" opacity="1" y="16.375" transform="rotate(0)"><tspan id="SvgjsTspan1029" dy="16" x="48"><tspan id="SvgjsTspan1030" style="text-decoration:;">Attention</tspan></tspan></text></g></g><g id="SvgjsG1031" transform="translate(187.84334309895831,234.44001388549805)"><path id="SvgjsPath1032" d="M 0 0L 96 0L 96 54L 0 54Z" stroke="rgba(33,41,48,1)" stroke-width="1.5" fill-opacity="1" fill="#314aa4"></path><g id="SvgjsG1033"><text id="SvgjsText1034" font-family="微软雅黑" text-anchor="middle" font-size="13px" width="76px" fill="#ffffff" font-weight="400" align="middle" lineHeight="125%" anchor="middle" family="微软雅黑" size="13px" weight="400" font-style="" opacity="1" y="16.375" transform="rotate(0)"><tspan id="SvgjsTspan1035" dy="16" x="48"><tspan id="SvgjsTspan1036" style="text-decoration:;">Dropout1</tspan></tspan></text></g></g><g id="SvgjsG1037" transform="translate(187.84334309895831,142.4400177001952)"><path id="SvgjsPath1038" d="M 0 0L 96 0L 96 54L 0 54Z" stroke="rgba(33,41,48,1)" stroke-width="1.5" fill-opacity="1" fill="#314aa4"></path><g id="SvgjsG1039"><text id="SvgjsText1040" font-family="微软雅黑" text-anchor="middle" font-size="13px" width="76px" fill="#ffffff" font-weight="400" align="middle" lineHeight="125%" anchor="middle" family="微软雅黑" size="13px" weight="400" font-style="" opacity="1" y="16.375" transform="rotate(0)"><tspan id="SvgjsTspan1041" dy="16" x="48"><tspan id="SvgjsTspan1042" style="text-decoration:;">⊕</tspan></tspan></text></g></g><g id="SvgjsG1043"><path id="SvgjsPath1044" d="M237.84334309895831 479.69001388549805L237.84334309895831 466.44001388549793L237.84334309895831 466.44001388549793L237.84334309895831 455.14001388549786" stroke="#323232" stroke-width="1.5" fill="none" marker-end="url(#SvgjsMarker1045)"></path></g><g id="SvgjsG1047"><path id="SvgjsPath1048" d="M237.84334309895831 397.69001388549805L237.84334309895831 384.44001388549816L237.84334309895837 384.44001388549816L237.84334309895837 373.1400138854983" stroke="#323232" stroke-width="1.5" fill="none" marker-end="url(#SvgjsMarker1049)"></path></g><g id="SvgjsG1051"><path id="SvgjsPath1052" d="M235.84334309895837 315.69001388549805L235.84334309895837 302.44001388549805L235.84334309895831 302.44001388549805L235.84334309895831 291.140013885498" stroke="#323232" stroke-width="1.5" fill="none" marker-end="url(#SvgjsMarker1053)"></path></g><g id="SvgjsG1055"><path id="SvgjsPath1056" d="M235.84334309895831 233.69001388549805L235.84334309895831 215.44001579284668L235.84334309895831 215.44001579284668L235.84334309895831 199.1400177001953" stroke="#323232" stroke-width="1.5" fill="none" marker-end="url(#SvgjsMarker1057)"></path></g><g id="SvgjsG1059"><path id="SvgjsPath1060" d="M288.5933430989583 505.44001388549805L317.8433430989583 505.44001388549805L317.8433430989583 169.44001770019526L286.5433430989583 169.44001770019526" stroke="#323232" stroke-width="1.5" fill="none" marker-end="url(#SvgjsMarker1061)"></path></g><g id="SvgjsG1063" transform="translate(405.75,480.44001388549805)"><path id="SvgjsPath1064" d="M 16.666666666666668 0L 83.33333333333333 0C 105.55555555555556 0 105.55555555555556 50 83.33333333333333 50L 16.666666666666668 50C -5.555555555555556 50 -5.555555555555556 0 16.666666666666668 0Z" stroke="rgba(33,41,48,1)" stroke-width="1.5" fill-opacity="1" fill="#314aa4"></path><g id="SvgjsG1065"><text id="SvgjsText1066" font-family="微软雅黑" text-anchor="middle" font-size="13px" width="80px" fill="#ffffff" font-weight="400" align="middle" lineHeight="125%" anchor="middle" family="微软雅黑" size="13px" weight="400" font-style="" opacity="1" y="5.875" transform="rotate(0)"><tspan id="SvgjsTspan1067" dy="16" x="50"><tspan id="SvgjsTspan1068" style="text-decoration:;">中间结果</tspan></tspan><tspan id="SvgjsTspan1069" dy="16" x="50"><tspan id="SvgjsTspan1070" style="text-decoration:;">[BS, SL, ES]</tspan></tspan></text></g></g><g id="SvgjsG1071"><path id="SvgjsPath1072" d="M235.84334309895831 141.6900177001952L235.84334309895831 112.4400177001952L351.79667154947913 112.4400177001952L351.79667154947913 561.440013885498L455.75 561.440013885498L455.75 533.1400138854981" stroke="#323232" stroke-width="1.5" fill="none" marker-end="url(#SvgjsMarker1073)"></path></g><g id="SvgjsG1075" transform="translate(407.75,398.44001388549805)"><path id="SvgjsPath1076" d="M 0 0L 96 0L 96 54L 0 54Z" stroke="rgba(33,41,48,1)" stroke-width="1.5" fill-opacity="1" fill="#314aa4"></path><g id="SvgjsG1077"><text id="SvgjsText1078" font-family="微软雅黑" text-anchor="middle" font-size="13px" width="76px" fill="#ffffff" font-weight="400" align="middle" lineHeight="125%" anchor="middle" family="微软雅黑" size="13px" weight="400" font-style="" opacity="1" y="7.875" transform="rotate(0)"><tspan id="SvgjsTspan1079" dy="16" x="48"><tspan id="SvgjsTspan1080" style="text-decoration:;">LayerNorm</tspan></tspan><tspan id="SvgjsTspan1081" dy="16" x="48"><tspan id="SvgjsTspan1082" style="text-decoration:;">2</tspan></tspan></text></g></g><g id="SvgjsG1083" transform="translate(407.75,316.44001388549805)"><path id="SvgjsPath1084" d="M 0 0L 96 0L 96 54L 0 54Z" stroke="rgba(33,41,48,1)" stroke-width="1.5" fill-opacity="1" fill="#314aa4"></path><g id="SvgjsG1085"><text id="SvgjsText1086" font-family="微软雅黑" text-anchor="middle" font-size="13px" width="76px" fill="#ffffff" font-weight="400" align="middle" lineHeight="125%" anchor="middle" family="微软雅黑" size="13px" weight="400" font-style="" opacity="1" y="7.875" transform="rotate(0)"><tspan id="SvgjsTspan1087" dy="16" x="48"><tspan id="SvgjsTspan1088" style="text-decoration:;">Feed</tspan></tspan><tspan id="SvgjsTspan1089" dy="16" x="48"><tspan id="SvgjsTspan1090" style="text-decoration:;">Forward</tspan></tspan></text></g></g><g id="SvgjsG1091" transform="translate(407.75,234.44001388549805)"><path id="SvgjsPath1092" d="M 0 0L 96 0L 96 54L 0 54Z" stroke="rgba(33,41,48,1)" stroke-width="1.5" fill-opacity="1" fill="#314aa4"></path><g id="SvgjsG1093"><text id="SvgjsText1094" font-family="微软雅黑" text-anchor="middle" font-size="13px" width="76px" fill="#ffffff" font-weight="400" align="middle" lineHeight="125%" anchor="middle" family="微软雅黑" size="13px" weight="400" font-style="" opacity="1" y="16.375" transform="rotate(0)"><tspan id="SvgjsTspan1095" dy="16" x="48"><tspan id="SvgjsTspan1096" style="text-decoration:;">Dropout2</tspan></tspan></text></g></g><g id="SvgjsG1097" transform="translate(407.75,142.4400177001952)"><path id="SvgjsPath1098" d="M 0 0L 96 0L 96 54L 0 54Z" stroke="rgba(33,41,48,1)" stroke-width="1.5" fill-opacity="1" fill="#314aa4"></path><g id="SvgjsG1099"><text id="SvgjsText1100" font-family="微软雅黑" text-anchor="middle" font-size="13px" width="76px" fill="#ffffff" font-weight="400" align="middle" lineHeight="125%" anchor="middle" family="微软雅黑" size="13px" weight="400" font-style="" opacity="1" y="16.375" transform="rotate(0)"><tspan id="SvgjsTspan1101" dy="16" x="48"><tspan id="SvgjsTspan1102" style="text-decoration:;">⊕</tspan></tspan></text></g></g><g id="SvgjsG1103" transform="translate(405.75,50.0000114440918)"><path id="SvgjsPath1104" d="M 16.666666666666668 0L 83.33333333333333 0C 105.55555555555556 0 105.55555555555556 50 83.33333333333333 50L 16.666666666666668 50C -5.555555555555556 50 -5.555555555555556 0 16.666666666666668 0Z" stroke="rgba(33,41,48,1)" stroke-width="1.5" fill-opacity="1" fill="#314aa4"></path><g id="SvgjsG1105"><text id="SvgjsText1106" font-family="微软雅黑" text-anchor="middle" font-size="13px" width="80px" fill="#ffffff" font-weight="400" align="middle" lineHeight="125%" anchor="middle" family="微软雅黑" size="13px" weight="400" font-style="" opacity="1" y="5.875" transform="rotate(0)"><tspan id="SvgjsTspan1107" dy="16" x="50"><tspan id="SvgjsTspan1108" style="text-decoration:;">输出</tspan></tspan><tspan id="SvgjsTspan1109" dy="16" x="50"><tspan id="SvgjsTspan1110" style="text-decoration:;">[BS, SL, ES]</tspan></tspan></text></g></g><g id="SvgjsG1111"><path id="SvgjsPath1112" d="M455.75 397.69001388549805L455.75 384.44001388549805L455.75 384.44001388549805L455.75 373.1400138854981" stroke="#323232" stroke-width="1.5" fill="none" marker-end="url(#SvgjsMarker1113)"></path></g><g id="SvgjsG1115"><path id="SvgjsPath1116" d="M455.75 315.69001388549805L455.75 302.44001388549805L455.75 302.44001388549805L455.75 291.14001388549804" stroke="#323232" stroke-width="1.5" fill="none" marker-end="url(#SvgjsMarker1117)"></path></g><g id="SvgjsG1119"><path id="SvgjsPath1120" d="M455.75 233.69001388549805L455.75 215.44001579284662L455.75 215.44001579284662L455.75 199.1400177001952" stroke="#323232" stroke-width="1.5" fill="none" marker-end="url(#SvgjsMarker1121)"></path></g><g id="SvgjsG1123"><path id="SvgjsPath1124" d="M455.75 141.6900177001952L455.75 121.2200145721435L455.75 121.2200145721435L455.75 102.70001144409179" stroke="#323232" stroke-width="1.5" fill="none" marker-end="url(#SvgjsMarker1125)"></path></g><g id="SvgjsG1127"><path id="SvgjsPath1128" d="M455.75 479.69001388549805L455.75 466.44001388549805L455.75 466.44001388549805L455.75 455.1400138854981" stroke="#323232" stroke-width="1.5" fill="none" marker-end="url(#SvgjsMarker1129)"></path></g><g id="SvgjsG1131"><path id="SvgjsPath1132" d="M506.5 505.44001388549805L535.75 505.44001388549805L535.75 169.4400177001952L508.45000000000005 169.4400177001952" stroke="#323232" stroke-width="1.5" fill="none" marker-end="url(#SvgjsMarker1133)"></path></g><g id="SvgjsG1135" transform="translate(25,25.000011444091797)"><path id="SvgjsPath1136" d="M 0 25L 25 0L 100 0L 100 70L 0 70L 0 25Z" stroke="rgba(33,41,48,1)" stroke-width="1.5" fill-opacity="1" fill="#314aa4"></path><g id="SvgjsG1137"><text id="SvgjsText1138" font-family="微软雅黑" text-anchor="middle" font-size="13px" width="80px" fill="#ffffff" font-weight="400" align="middle" lineHeight="125%" anchor="middle" family="微软雅黑" size="13px" weight="400" font-style="" opacity="1" y="15.875" transform="rotate(0)"><tspan id="SvgjsTspan1139" dy="16" x="50"><tspan id="SvgjsTspan1140" style="text-decoration:;">Bert: </tspan></tspan><tspan id="SvgjsTspan1141" dy="16" x="50"><tspan id="SvgjsTspan1142" style="text-decoration:;">TFBlock</tspan></tspan></text></g></g></svg>