<svg id="SvgjsSvg1006" width="368" height="522" xmlns="http://www.w3.org/2000/svg" version="1.1" xmlns:xlink="http://www.w3.org/1999/xlink" xmlns:svgjs="http://svgjs.com/svgjs"><defs id="SvgjsDefs1007"><pattern patternUnits="userSpaceOnUse" id="pattern_mark_0" width="300" height="300"><text x="150" y="100" fill="rgba(229,229,229,0.8)" font-size="18" transform="rotate(-45, 150, 150)" style="dominant-baseline: middle; text-anchor: middle;"></text></pattern><pattern patternUnits="userSpaceOnUse" id="pattern_mark_1" width="300" height="300"><text x="150" y="200" fill="rgba(229,229,229,0.8)" font-size="18" transform="rotate(-45, 150, 150)" style="dominant-baseline: middle; text-anchor: middle;"></text></pattern><marker id="SvgjsMarker1057" markerWidth="13" markerHeight="9" refX="9.5" refY="4.5" viewBox="0 0 13 9" orient="auto" markerUnits="userSpaceOnUse" stroke-dasharray="0,0"><path id="SvgjsPath1058" d="M0,0 L13,4.5 L0,9 L0,0" fill="#323232" stroke="#323232" stroke-width="1"></path></marker><marker id="SvgjsMarker1061" markerWidth="13" markerHeight="9" refX="9.5" refY="4.5" viewBox="0 0 13 9" orient="auto" markerUnits="userSpaceOnUse" stroke-dasharray="0,0"><path id="SvgjsPath1062" d="M0,0 L13,4.5 L0,9 L0,0" fill="#323232" stroke="#323232" stroke-width="1"></path></marker><marker id="SvgjsMarker1065" markerWidth="13" markerHeight="9" refX="9.5" refY="4.5" viewBox="0 0 13 9" orient="auto" markerUnits="userSpaceOnUse" stroke-dasharray="0,0"><path id="SvgjsPath1066" d="M0,0 L13,4.5 L0,9 L0,0" fill="#323232" stroke="#323232" stroke-width="1"></path></marker><marker id="SvgjsMarker1069" markerWidth="13" markerHeight="9" refX="9.5" refY="4.5" viewBox="0 0 13 9" orient="auto" markerUnits="userSpaceOnUse" stroke-dasharray="0,0"><path id="SvgjsPath1070" d="M0,0 L13,4.5 L0,9 L0,0" fill="#323232" stroke="#323232" stroke-width="1"></path></marker><marker id="SvgjsMarker1073" markerWidth="13" markerHeight="9" refX="9.5" refY="4.5" viewBox="0 0 13 9" orient="auto" markerUnits="userSpaceOnUse" stroke-dasharray="0,0"><path id="SvgjsPath1074" d="M0,0 L13,4.5 L0,9 L0,0" fill="#323232" stroke="#323232" stroke-width="1"></path></marker></defs><rect id="svgbackgroundid" width="368" height="522" fill="transparent"></rect><rect id="SvgjsRect1009" width="368" height="522" fill="url(#pattern_mark_0)"></rect><rect id="SvgjsRect1010" width="368" height="522" fill="url(#pattern_mark_1)"></rect><g id="SvgjsG1011" transform="translate(243,447)"><path id="SvgjsPath1012" d="M 16.666666666666668 0L 83.33333333333333 0C 105.55555555555556 0 105.55555555555556 50 83.33333333333333 50L 16.666666666666668 50C -5.555555555555556 50 -5.555555555555556 0 16.666666666666668 0Z" stroke="rgba(33,41,48,1)" stroke-width="1.5" fill-opacity="1" fill="#314aa4"></path><g id="SvgjsG1013"><text id="SvgjsText1014" font-family="微软雅黑" text-anchor="middle" font-size="13px" width="80px" fill="#ffffff" font-weight="400" align="middle" lineHeight="125%" anchor="middle" family="微软雅黑" size="13px" weight="400" font-style="" opacity="1" y="5.875" transform="rotate(0)"><tspan id="SvgjsTspan1015" dy="16" x="50"><tspan id="SvgjsTspan1016" style="text-decoration:;">输入</tspan></tspan><tspan id="SvgjsTspan1017" dy="16" x="50"><tspan id="SvgjsTspan1018" style="text-decoration:;">[BS, SL, ES]</tspan></tspan></text></g></g><g id="SvgjsG1019" transform="translate(245,365.99999618530273)"><path id="SvgjsPath1020" d="M 0 0L 96 0L 96 54L 0 54Z" stroke="rgba(33,41,48,1)" stroke-width="1.5" fill-opacity="1" fill="#314aa4"></path><g id="SvgjsG1021"><text id="SvgjsText1022" font-family="微软雅黑" text-anchor="middle" font-size="13px" width="76px" fill="#ffffff" font-weight="400" align="middle" lineHeight="125%" anchor="middle" family="微软雅黑" size="13px" weight="400" font-style="" opacity="1" y="7.875" transform="rotate(0)"><tspan id="SvgjsTspan1023" dy="16" x="48"><tspan id="SvgjsTspan1024" style="text-decoration:;">Linear1</tspan></tspan><tspan id="SvgjsTspan1025" dy="16" x="48"><tspan id="SvgjsTspan1026" style="text-decoration:;">[ES, 4ES]</tspan></tspan></text></g></g><g id="SvgjsG1027" transform="translate(245,277.99999618530273)"><path id="SvgjsPath1028" d="M 0 0L 96 0L 96 54L 0 54Z" stroke="rgba(33,41,48,1)" stroke-width="1.5" fill-opacity="1" fill="#314aa4"></path><g id="SvgjsG1029"><text id="SvgjsText1030" font-family="微软雅黑" text-anchor="middle" font-size="13px" width="76px" fill="#ffffff" font-weight="400" align="middle" lineHeight="125%" anchor="middle" family="微软雅黑" size="13px" weight="400" font-style="" opacity="1" y="16.375" transform="rotate(0)"><tspan id="SvgjsTspan1031" dy="16" x="48"><tspan id="SvgjsTspan1032" style="text-decoration:;">GELU</tspan></tspan></text></g></g><g id="SvgjsG1033" transform="translate(245,189.99999618530273)"><path id="SvgjsPath1034" d="M 0 0L 96 0L 96 54L 0 54Z" stroke="rgba(33,41,48,1)" stroke-width="1.5" fill-opacity="1" fill="#314aa4"></path><g id="SvgjsG1035"><text id="SvgjsText1036" font-family="微软雅黑" text-anchor="middle" font-size="13px" width="76px" fill="#ffffff" font-weight="400" align="middle" lineHeight="125%" anchor="middle" family="微软雅黑" size="13px" weight="400" font-style="" opacity="1" y="16.375" transform="rotate(0)"><tspan id="SvgjsTspan1037" dy="16" x="48"><tspan id="SvgjsTspan1038" style="text-decoration:;">Dropout</tspan></tspan></text></g></g><g id="SvgjsG1039" transform="translate(245,108.99999237060547)"><path id="SvgjsPath1040" d="M 0 0L 96 0L 96 54L 0 54Z" stroke="rgba(33,41,48,1)" stroke-width="1.5" fill-opacity="1" fill="#314aa4"></path><g id="SvgjsG1041"><text id="SvgjsText1042" font-family="微软雅黑" text-anchor="middle" font-size="13px" width="76px" fill="#ffffff" font-weight="400" align="middle" lineHeight="125%" anchor="middle" family="微软雅黑" size="13px" weight="400" font-style="" opacity="1" y="7.875" transform="rotate(0)"><tspan id="SvgjsTspan1043" dy="16" x="48"><tspan id="SvgjsTspan1044" style="text-decoration:;">Linear2</tspan></tspan><tspan id="SvgjsTspan1045" dy="16" x="48"><tspan id="SvgjsTspan1046" style="text-decoration:;">[4ES, ES]</tspan></tspan></text></g></g><g id="SvgjsG1047" transform="translate(241,25)"><path id="SvgjsPath1048" d="M 16.666666666666668 0L 83.33333333333333 0C 105.55555555555556 0 105.55555555555556 50 83.33333333333333 50L 16.666666666666668 50C -5.555555555555556 50 -5.555555555555556 0 16.666666666666668 0Z" stroke="rgba(33,41,48,1)" stroke-width="1.5" fill-opacity="1" fill="#314aa4"></path><g id="SvgjsG1049"><text id="SvgjsText1050" font-family="微软雅黑" text-anchor="middle" font-size="13px" width="80px" fill="#ffffff" font-weight="400" align="middle" lineHeight="125%" anchor="middle" family="微软雅黑" size="13px" weight="400" font-style="" opacity="1" y="5.875" transform="rotate(0)"><tspan id="SvgjsTspan1051" dy="16" x="50"><tspan id="SvgjsTspan1052" style="text-decoration:;">输出</tspan></tspan><tspan id="SvgjsTspan1053" dy="16" x="50"><tspan id="SvgjsTspan1054" style="text-decoration:;">[BS, SL, ES]</tspan></tspan></text></g></g><g id="SvgjsG1055"><path id="SvgjsPath1056" d="M293 446.25L293 433.49999809265137L293 433.49999809265137L293 422.6999961853027" stroke="#323232" stroke-width="1.5" fill="none" marker-end="url(#SvgjsMarker1057)"></path></g><g id="SvgjsG1059"><path id="SvgjsPath1060" d="M293 365.24999618530273L293 348.99999618530273L293 348.99999618530273L293 334.6999961853027" stroke="#323232" stroke-width="1.5" fill="none" marker-end="url(#SvgjsMarker1061)"></path></g><g id="SvgjsG1063"><path id="SvgjsPath1064" d="M293 277.24999618530273L293 260.99999618530273L293 260.99999618530273L293 246.69999618530272" stroke="#323232" stroke-width="1.5" fill="none" marker-end="url(#SvgjsMarker1065)"></path></g><g id="SvgjsG1067"><path id="SvgjsPath1068" d="M293 189.24999618530273L293 176.4999942779541L293 176.4999942779541L293 165.69999237060546" stroke="#323232" stroke-width="1.5" fill="none" marker-end="url(#SvgjsMarker1069)"></path></g><g id="SvgjsG1071"><path id="SvgjsPath1072" d="M293 108.24999237060547L293 91.99999618530273L293 91.99999618530273L293 77.7" stroke="#323232" stroke-width="1.5" fill="none" marker-end="url(#SvgjsMarker1073)"></path></g><g id="SvgjsG1075" transform="translate(25,25)"><path id="SvgjsPath1076" d="M 0 25.5L 25.5 0L 102 0L 102 70L 0 70L 0 25.5Z" stroke="rgba(33,41,48,1)" stroke-width="1.5" fill-opacity="1" fill="#314aa4"></path><g id="SvgjsG1077"><text id="SvgjsText1078" font-family="微软雅黑" text-anchor="middle" font-size="13px" width="82px" fill="#ffffff" font-weight="400" align="middle" lineHeight="125%" anchor="middle" family="微软雅黑" size="13px" weight="400" font-style="" opacity="1" y="15.875" transform="rotate(0)"><tspan id="SvgjsTspan1079" dy="16" x="51"><tspan id="SvgjsTspan1080" style="text-decoration:;">Bert: </tspan></tspan><tspan id="SvgjsTspan1081" dy="16" x="51"><tspan id="SvgjsTspan1082" style="text-decoration:;">FeedForward</tspan></tspan></text></g></g></svg>